<svg xmlns="http://www.w3.org/2000/svg" width="21.999" height="22" viewBox="0 0 21.999 22"><defs><style>.a{fill:#e03a3e;}</style></defs><g transform="translate(0 0)"><path class="a" d="M20.083,11.307a.538.538,0,0,0-.542.534v4.74a1.615,1.615,0,0,1-1.626,1.6H2.71a1.615,1.615,0,0,1-1.626-1.6V2.669a1.616,1.616,0,0,1,1.626-1.6H7.521A.538.538,0,0,0,8.063.534.538.538,0,0,0,7.521,0H2.71A2.693,2.693,0,0,0,0,2.669V16.581A2.693,2.693,0,0,0,2.71,19.25H17.915a2.693,2.693,0,0,0,2.71-2.669v-4.74A.538.538,0,0,0,20.083,11.307Z" transform="translate(0 2.75)"/><path class="a" d="M.563,16.5a.563.563,0,0,1-.543-.713L1.34,11.023a.566.566,0,0,1,.145-.247L11.52.742a2.53,2.53,0,0,1,3.579,0l.661.66a2.537,2.537,0,0,1,0,3.579L5.725,15.016a.572.572,0,0,1-.247.144L.713,16.48A.561.561,0,0,1,.563,16.5Zm1.617-4.3L1.37,15.13,4.3,14.319,2.181,12.2h0Zm8.743-9.274L2.71,11.141,5.359,13.79l8.213-8.213Zm2.386-1.8a1.4,1.4,0,0,0-.994.412l-.6.6,2.649,2.649.6-.6a1.411,1.411,0,0,0,0-1.989L14.3,1.536A1.4,1.4,0,0,0,13.31,1.125Z" transform="translate(5.5)"/></g></svg>