<svg xmlns="http://www.w3.org/2000/svg" xmlns:xlink="http://www.w3.org/1999/xlink" width="44.7" height="44.254" viewBox="0 0 44.7 44.254"><defs><style>.a{fill:url(#a);}.b{fill:url(#b);}.c{clip-path:url(#c);}.d{fill:#fff;}</style><radialGradient id="a" cx="54.028" cy="50.321" r="22.433" gradientTransform="translate(0.196 0.195) scale(0.991 0.991)" gradientUnits="userSpaceOnUse"><stop offset="0" stop-color="#1ab9ec"/><stop offset="0.19" stop-color="#1ab9ec"/><stop offset="0.314" stop-color="#1daddd"/><stop offset="0.548" stop-color="#1b93c0"/><stop offset="0.865" stop-color="#156f99"/><stop offset="1" stop-color="#0f618b"/></radialGradient><radialGradient id="b" cx="42.314" cy="36.071" r="45.428" gradientTransform="translate(0.102 0.075) scale(0.99 0.99)" gradientUnits="userSpaceOnUse"><stop offset="0" stop-color="#26b8eb"/><stop offset="0.19" stop-color="#26b8eb"/><stop offset="0.316" stop-color="#27acdc"/><stop offset="0.554" stop-color="#2192be"/><stop offset="0.877" stop-color="#166e98"/><stop offset="1" stop-color="#0f618b"/></radialGradient><clipPath id="c"><path d="M32.5,28.9H77.2V73.136H32.5V28.9" transform="translate(-32.5 -28.9)"/></clipPath></defs><g transform="translate(-32.5 -28.9)"><g transform="translate(32.5 28.9)"><path class="a" d="M77.244,29V73.236H32.6V29Z" transform="translate(-32.581 -28.981)"/><path class="b" d="M32.5,73.136V28.9H77.2V73.136Z" transform="translate(-32.5 -28.9)"/><g transform="translate(0 0)"><g class="c"><path class="d" d="M117.6,167.349a3.331,3.331,0,0,0-.39-1.616h.149V162.5H113.4a2.375,2.375,0,0,0-1.133.334V162.5h-3.7a2.317,2.317,0,0,0-1.226.334V162.5h-5.852v.372a2.352,2.352,0,0,0-1.226-.372H95.711v.316a2.691,2.691,0,0,0-1.059-.316H89.488s-.8.892-1.04,1.152c-.242-.26-1.022-1.152-1.022-1.152H80.7v7.394h6.614s.8-.91,1.04-1.189c.223.279.966,1.189.966,1.189h4.032v-1.839h1.3a2.23,2.23,0,0,0,1.04-.242v2.081h3.214v-2.044h.223c.223,0,.223.056.223.279l.019.13v1.635h10.683a1.92,1.92,0,0,0,1.115-.3v.3h3.957a2.5,2.5,0,0,0,2.471-2.545h0Zm-23.446-.279H92.4v1.8H89.878l-1.523-1.765-1.579,1.765h-5V163.54h5.165l1.449,1.672,1.5-1.654h4.589a1.48,1.48,0,0,1,1.579,1.635c0,1.858-1.226,1.876-1.914,1.876Zm7.469.725.037,1.1h-1.282l-.037-.985c0-.446-.186-.91-.632-.91H98v1.876H96.7V163.54h3.4a1.4,1.4,0,0,1,1.561,1.431,1.443,1.443,0,0,1-.91,1.468c.632.093.873.5.873,1.356h0Zm4.979-3.1h-2.973v1h2.9v1h-2.9v1.059H106.6v1.115h-4.273V163.54H106.6v1.152Zm3.381,4.2h-2.75v-1.152h2.137c.372,0,.91,0,.91-.52,0-.242-.093-.409-.483-.446-.167-.019-.817-.056-.91-.056-1.449-.037-1.784-.762-1.784-1.635a1.466,1.466,0,0,1,1.561-1.542h2.75v1.152H109.4c-.464,0-.948-.056-.948.464,0,.316.242.39.557.427.111,0,.817.037.91.037,1.616.074,1.746.892,1.746,1.746a1.579,1.579,0,0,1-1.691,1.523h0Zm4.9,0h-2.75v-1.152h2.137c.372,0,.91,0,.91-.52,0-.242-.093-.409-.483-.446-.167-.019-.817-.056-.91-.056-1.449-.037-1.784-.762-1.784-1.635a1.466,1.466,0,0,1,1.561-1.542h2.88v1.152h-2.137c-.464,0-.948-.056-.948.464,0,.316.242.39.557.427.111,0,.817.037.929.037,1.616.074,1.746.892,1.746,1.746a1.606,1.606,0,0,1-1.709,1.523h0Z" transform="translate(-71.745 -137.679)"/></g><g class="c"><path class="d" d="M145.235,174.3H143.6v1.282h1.616a.631.631,0,0,0,.725-.669c.019-.26-.149-.613-.706-.613Z" transform="translate(-122.959 -147.287)"/></g><g class="c"><path class="d" d="M175.435,174.3H173.8v1.208h1.616c.539,0,.725-.242.725-.595.019-.26-.149-.613-.706-.613Z" transform="translate(-147.548 -147.287)"/></g><g class="c"><path class="d" d="M96.48,176.306H93.6v1.059h3.01l1.449-1.616L96.777,174.3H93.6v1h2.88Z" transform="translate(-82.248 -147.287)"/></g><g class="c"><path class="d" d="M126.5,172.9h0l1.9,2.229-.019-4.329Z" transform="translate(-109.036 -144.437)"/></g><g class="c"><path class="d" d="M68.134,113.3H65.106v1.3c-.316-.557-.762-1.3-.762-1.3h-3.4v1.356c-.279-.595-.595-1.356-.595-1.356H55.018a2.42,2.42,0,0,0-1.6.5v-.5H50.447v.353a2.021,2.021,0,0,0-1.189-.353H36.941s-.632,1.375-.892,1.932c-.26-.557-.91-1.932-.91-1.932h-3.79v1.375c-.26-.613-.576-1.375-.576-1.375h-3.1l-3.27,7.376h3.79s.464-1.04.539-1.245h.985c.093.2.52,1.245.52,1.245h4.273V119.8c.186.372.409.873.409.873h2.267s.223-.483.39-.836v.836H47.828v-2.006h.3a.277.277,0,0,1,.242.26v1.746H53.42v-.613a3.393,3.393,0,0,0,1.765.613h2.582s.483-1.133.576-1.356h.929c.093.2.613,1.356.613,1.356h4.18v-1.5c.372.613.929,1.5.929,1.5h3.363V113.3h-.223Zm-28.407,6.354h-1.3v-3.9l-1.8,3.9H35.436L33.689,115.7v3.957H31.051l-.52-1.189h-2.6l-.52,1.189H26.035l2.322-5.332h1.728l2.285,5.146v-5.146h2.044l1.6,3.586,1.6-3.586H39.69v5.332Zm5.146-4.18H41.9v.985h2.88v1.022H41.9v1.059h2.973v1.115H40.6v-5.332h4.273v1.152Zm5.685,3.084.037,1.1H49.332l-.037-.985c-.019-.446-.186-.91-.65-.91H46.936v1.876h-1.3V114.3h3.4a1.407,1.407,0,0,1,1.579,1.431,1.429,1.429,0,0,1-.91,1.468c.613.111.855.5.855,1.356h0Zm2.025,1.1h-1.3v-5.332h1.3v5.332Zm14.77,0H65.57l-2.359-3.9v3.9H60.628l-.52-1.189h-2.62l-.5,1.189H55.259c-1.449,0-2.1-1.226-2.062-2.694.037-2.192,1.338-2.638,1.932-2.638h1.709v1.17h-.817c-.817,0-1.468.074-1.542,1.152a4.476,4.476,0,0,0,0,.706c.056,1.133.892,1.133,1.078,1.133h.557l1.8-4.124h1.728l2.229,5.016v-5.016h1.932l2.211,3.7v-3.7h1.3v5.295h.037Z" transform="translate(-25.905 -97.62)"/></g><g class="c"><path class="d" d="M205.4,126.776H207l-.817-1.876Z" transform="translate(-173.278 -107.065)"/></g><g class="c"><path class="d" d="M147.335,125H145.7v1.208h1.635c.539,0,.725-.242.725-.595,0-.26-.167-.613-.725-.613Z" transform="translate(-124.669 -107.146)"/></g><g class="c"><path class="d" d="M46.1,126.758h1.579l-.8-1.858Z" transform="translate(-43.573 -107.065)"/></g></g></g></g></svg>