<svg xmlns="http://www.w3.org/2000/svg" width="55" height="62" viewBox="0 0 55 62"><defs><style>.a,.c{fill:none;}.a{stroke:#595756;stroke-miterlimit:10;stroke-width:2px;}.b{stroke:none;}</style></defs><g transform="translate(-1108 -1590)"><g transform="translate(1108 1590)"><g class="a"><rect class="b" width="55" height="62" rx="5"/><rect class="c" x="1" y="1" width="53" height="60" rx="4"/></g></g><g transform="translate(1126 1604)"><path d="M13.831,15.9a41.672,41.672,0,0,0-4.247-1.937,9.516,9.516,0,0,1-2.332-1.316,2.05,2.05,0,0,1,.5-3.636,4.067,4.067,0,0,1,1.428-.3,10.768,10.768,0,0,1,5.367,1.07c.847.412,1.126.282,1.413-.607.3-.94.552-1.894.832-2.841a.994.994,0,0,0-.639-1.323,13.567,13.567,0,0,0-3.386-1.019c-1.535-.239-1.535-.246-1.543-1.8C11.22,0,11.22,0,9.039,0,8.723,0,8.407,0,8.092,0,7.073.032,6.9.213,6.872,1.247c-.014.463,0,.925-.007,1.4-.007,1.373-.014,1.352-1.32,1.829C2.388,5.627.436,7.8.228,11.265c-.187,3.072,1.406,5.147,3.91,6.658a43.068,43.068,0,0,0,4.886,2.212A7.246,7.246,0,0,1,10.8,21.19a2.466,2.466,0,0,1-.581,4.308,5.812,5.812,0,0,1-3.135.412,13.917,13.917,0,0,1-4.778-1.439c-.882-.463-1.141-.34-1.442.622-.258.831-.488,1.67-.717,2.508-.309,1.128-.194,1.4.875,1.923a15.17,15.17,0,0,0,4.3,1.243c1.162.188,1.2.239,1.213,1.453.007.549.007,1.106.014,1.655A.98.98,0,0,0,7.6,34.99c.8.014,1.614.014,2.418-.007a.924.924,0,0,0,1-1.048c0-.752.036-1.511.007-2.263a1.193,1.193,0,0,1,1.026-1.359,8.1,8.1,0,0,0,4.226-2.732A7.713,7.713,0,0,0,13.831,15.9Z"/></g></g></svg>