<svg xmlns="http://www.w3.org/2000/svg" width="55" height="62" viewBox="0 0 55 62"><defs><style>.a{fill:#010002;}.b,.d{fill:none;}.b{stroke:#595756;stroke-miterlimit:10;stroke-width:2px;}.c{stroke:none;}</style></defs><g transform="translate(0 -4)"><g transform="translate(8 14)"><circle class="a" cx="4.5" cy="4.5" r="4.5" transform="translate(17)"/><path class="a" d="M4.174,32a1.674,1.674,0,0,1-1.226-.533,1.833,1.833,0,0,1-.274-2.12L.383,28.013A.791.791,0,0,1,.1,26.954l5.727-10.48a.748.748,0,0,1,.655-.4.73.73,0,0,1,.368.1l3.026,1.76,2.148-3.964a1.866,1.866,0,0,1-.356-1.906,35.309,35.309,0,0,1,6.829-10.4A7.529,7.529,0,0,1,19.286.92,3.831,3.831,0,0,1,21.457.028l.1-.011A2.819,2.819,0,0,1,21.873,0a3.573,3.573,0,0,1,.668.064,4.631,4.631,0,0,1,1.993.854,11.036,11.036,0,0,1,1.072.919c1.646,1.5,4.709,4.305,7.824,4.637a1.8,1.8,0,0,1,1.56,1.985,1.764,1.764,0,0,1-1.734,1.622,1.576,1.576,0,0,1-.183-.01,11.818,11.818,0,0,1-6.78-2.635l.517,6.15a3.246,3.246,0,0,1-.694,2.309l0,.006A102.994,102.994,0,0,1,32.5,28.768,2.333,2.333,0,0,1,31.368,31.8a2.13,2.13,0,0,1-.9.2,2.222,2.222,0,0,1-2.034-1.37,107.037,107.037,0,0,0-5.681-11.613c-.757,1.356-2.016,3.877-3.233,6.315C18.386,27.6,17.315,29.75,16.7,30.847a2.215,2.215,0,0,1-1.767,1.148c-.052,0-.1.006-.157.006a2.18,2.18,0,0,1-1.111-.308,2.35,2.35,0,0,1-.815-3.144c.973-1.747,3.131-5.835,4.866-9.12l0-.009c.688-1.3,1.283-2.43,1.687-3.188a3.189,3.189,0,0,1-.824-1.908L18.042,7.83a25.339,25.339,0,0,0-3.13,5.575,1.769,1.769,0,0,1-1.35,1.117L10.846,19.4,8.655,23.44,5.529,29.121a1.828,1.828,0,0,1-.148,2.367A1.68,1.68,0,0,1,4.174,32Zm-.035-2.373a.649.649,0,1,0,.626.649A.639.639,0,0,0,4.139,29.627Z" transform="translate(0 9)"/></g><g transform="translate(0 4)"><g class="b"><rect class="c" width="55" height="62" rx="5"/><rect class="d" x="1" y="1" width="53" height="60" rx="4"/></g></g></g></svg>