<svg xmlns="http://www.w3.org/2000/svg" xmlns:xlink="http://www.w3.org/1999/xlink" width="89.798" height="90" viewBox="0 0 89.798 90"><defs><style>.a,.d{fill:#efefef;}.a{clip-rule:evenodd;}.b{fill:#66a954;fill-rule:evenodd;}.c{clip-path:url(#a);}.e{fill:#fff;}</style><clipPath id="a"><path class="a" d="M44.9-150.24A44.889,44.889,0,0,1,0-195.12,44.889,44.889,0,0,1,44.9-240a44.889,44.889,0,0,1,44.9,44.88A44.889,44.889,0,0,1,44.9-150.24Zm0-19.513A25.372,25.372,0,0,0,70.276-195.12,25.372,25.372,0,0,0,44.9-220.487,25.372,25.372,0,0,0,19.521-195.12,25.372,25.372,0,0,0,44.9-169.753Z" transform="translate(0 240)"/></clipPath></defs><g transform="translate(-188 -1716)"><g transform="translate(188 1716)"><path class="b" d="M44.9-150.2A44.9,44.9,0,0,1,0-195.1,44.9,44.9,0,0,1,44.9-240a44.9,44.9,0,0,1,44.9,44.9A44.9,44.9,0,0,1,44.9-150.2Zm0-19.521A25.378,25.378,0,0,0,70.276-195.1,25.378,25.378,0,0,0,44.9-220.479,25.378,25.378,0,0,0,19.521-195.1,25.378,25.378,0,0,0,44.9-169.724Z" transform="translate(0 240)"/><g class="c" transform="translate(0 0.24)"><path class="d" d="M1902.111-1421.252c2.466.671,57.3,21.538,57.3,21.538l61.644-13.886v-16.988s-78.91-9.391-80.76-7.881S1902.111-1421.252,1902.111-1421.252Z" transform="translate(-1914.926 1436.006)"/></g></g><path class="e" d="M32.517,0A32.5,32.5,0,1,1,0,32.5,32.508,32.508,0,0,1,32.517,0Z" transform="translate(200 1729)"/></g></svg>