<svg xmlns="http://www.w3.org/2000/svg" xmlns:xlink="http://www.w3.org/1999/xlink" width="87.17" height="44.566" viewBox="0 0 87.17 44.566"><defs><style>.a,.b{fill-rule:evenodd;}.b{fill:#f60;}.c{fill:none;stroke:#000;stroke-linecap:round;stroke-miterlimit:3.864;stroke-width:1.234px;}.d{fill:url(#a);}</style><radialGradient id="a" cx="6.773" cy="6.773" r="6.773" gradientUnits="userSpaceOnUse"><stop offset="0" stop-color="#fff"/><stop offset="1" stop-color="#f60"/></radialGradient></defs><g transform="translate(-29.186 -71.578)"><g transform="translate(29.186 71.578)"><path d="M31.645,83.975s5.483.618,5.483-4.234v-.077c0-4.852-5.483-4.234-5.483-4.234ZM29.186,73.109h4.271a6.619,6.619,0,0,1,6.327,6.471v.1a6.619,6.619,0,0,1-6.327,6.471H29.186Z" transform="translate(-29.186 -72.794)"/><rect width="2.609" height="13.06" transform="translate(11.719 0.315)"/><path class="a" d="M110.038,75.279a3.023,3.023,0,0,0-2.013-.989,1.661,1.661,0,0,0-1.819,1.325c0,.559-.021.874,1.626,1.562s4.069,1.182,4.069,4.09a4.254,4.254,0,0,1-4.327,4.383,5.572,5.572,0,0,1-4.684-2.478l1.626-1.626a3.66,3.66,0,0,0,2.83,1.733,1.687,1.687,0,0,0,1.9-1.819c0-.666-.387-1.325-1.5-1.733s-4.147-.817-4.147-3.746c0-2.629,1.965-3.932,4.168-3.932a6.349,6.349,0,0,1,3.682,1.54Z" transform="translate(-87.712 -71.951)"/><path class="a" d="M160.574,75.447a4.41,4.41,0,1,0-3.171,7.442,4.517,4.517,0,0,0,3.173-1.421v3.077a6.873,6.873,0,1,1,0-12.187v3.089Z" transform="translate(-125.546 -71.578)"/><path d="M268.352,73.109h2.809l3.594,8.556,3.388-8.556h2.81L275.462,86.5h-1.618Z" transform="translate(-219.102 -72.794)"/><path d="M380.146,75.286V79.1h1.4a1.822,1.822,0,0,0,1.763-1.824V77.11a1.822,1.822,0,0,0-1.763-1.824h-1.4ZM377.6,73.109h4.257a3.816,3.816,0,0,1,4.063,3.848,3.768,3.768,0,0,1-2.8,3.752l3.987,5.461h-3.17l-3.523-5.212h-.27v5.212H377.6V73.109Z" transform="translate(-305.853 -72.794)"/><path d="M341.3,78.257v2.3h-4.436v3.306H341.5v2.3h-7.233V73.109H341.5v2.3h-4.642v2.845Z" transform="translate(-271.448 -72.794)"/></g><g transform="translate(43.708 71.715)"><path class="b" d="M99.706,187.028s26.872-4.771,44.376-11.875c17.426-6.465,28.273-14.309,28.273-14.309v26.184Z" transform="translate(-99.706 -142.599)"/><path class="a" d="M138.15,152.739l2.859,2.746q.165.158.244.25t.251.3v-3.121h.667v4.673l-2.919-2.8a3.355,3.355,0,0,1-.435-.5v3.127h-.667Z" transform="translate(-130.233 -136.163)"/><path class="a" d="M168.681,153.587h2.511v.623h-1.781v1.126h1.781v.642h-1.781v1.453h1.781v.654h-2.511Z" transform="translate(-154.477 -136.836)"/><path class="a" d="M190.279,158.006h-.73v-3.924h-.99v-.623h2.7v.623h-.983Z" transform="translate(-170.263 -136.735)"/><path class="a" d="M209.979,152.924l.851,2.271q.069.183.125.352t.113.359q.075-.245.154-.481l.091-.273.905-2.4.95,2.443q.13.35.236.715a3.2,3.2,0,0,1,.093-.327q.068-.208.124-.371l.847-2.289h.732l-1.743,4.673-1.026-2.565a5.99,5.99,0,0,1-.22-.629,6.375,6.375,0,0,1-.214.642l-1.007,2.553-1.737-4.673Z" transform="translate(-186.695 -136.174)"/><path class="a" d="M248.134,157.129a2.348,2.348,0,0,1-1.7.693,2.4,2.4,0,0,1-1.705-.69,2.27,2.27,0,0,1-.522-.762,2.357,2.357,0,0,1-.176-.911,2.256,2.256,0,0,1,.7-1.676,2.445,2.445,0,0,1,3.4,0,2.333,2.333,0,0,1,0,3.343Zm-.541-2.867a1.542,1.542,0,0,0-1.158-.492,1.4,1.4,0,0,0-1.044.366,2.117,2.117,0,0,0-.478.672,1.774,1.774,0,0,0-.119.652,1.645,1.645,0,0,0,.478,1.191,1.616,1.616,0,0,0,2.325,0,1.715,1.715,0,0,0,0-2.386Z" transform="translate(-214.312 -136.447)"/><path class="a" d="M276.369,158.086h-.686v-4.5H276.7a3.578,3.578,0,0,1,.667.05,1.05,1.05,0,0,1,.774.616,1.384,1.384,0,0,1,.113.573,1.077,1.077,0,0,1-1.032,1.214l1.548,2.045-.822,0-1.5-2.012h-.082Zm.176-2.58a1.747,1.747,0,0,0,.749-.113q.214-.113.214-.5a.583.583,0,0,0-.22-.535,1.467,1.467,0,0,0-.742-.138h-.132v1.29h.132Z" transform="translate(-239.445 -136.836)"/><path class="a" d="M298.225,153.587h.73v1.865l1.618-1.865h.893l-1.781,2,1.995,2.5-.948,0-1.777-2.3v2.293h-.73Z" transform="translate(-257.345 -136.836)"/><path class="a" d="M423.268,77.489V76.4h.371a.515.515,0,0,1,.2.029.218.218,0,0,1,.1.1.373.373,0,0,1,.038.172.339.339,0,0,1-.057.2.259.259,0,0,1-.172.1.447.447,0,0,1,.094.092,1.291,1.291,0,0,1,.1.177l.107.213h-.211l-.126-.238a1.548,1.548,0,0,0-.093-.16.139.139,0,0,0-.053-.045.235.235,0,0,0-.089-.012h-.036v.456Zm.177-.63h.131a.541.541,0,0,0,.159-.013.1.1,0,0,0,.049-.046.169.169,0,0,0,.018-.082.154.154,0,0,0-.023-.089.1.1,0,0,0-.066-.043,1.19,1.19,0,0,0-.129,0h-.138v.277Z" transform="translate(-356.639 -75.542)"/><circle class="c" cx="0.889" cy="0.889" r="0.889" transform="translate(66.056 0.549)"/><circle class="d" cx="6.773" cy="6.773" r="6.773" transform="translate(21.64)"/></g></g></svg>