<svg xmlns="http://www.w3.org/2000/svg" width="70" height="44.254" viewBox="0 0 70 44.254"><defs><style>.a{fill:#fff;}.b{fill:#ff5f00;}.c{fill:#eb001b;}.d{fill:#f79e1b;}</style></defs><rect width="70" height="44.254"/><g transform="translate(10.772 3.078)"><path class="a" d="M38.18,89.773v-2.5A1.453,1.453,0,0,0,36.642,85.7a1.641,1.641,0,0,0-1.414.707A1.455,1.455,0,0,0,33.9,85.7a1.413,1.413,0,0,0-1.206.582v-.5H31.9v3.993h.79V87.486a.93.93,0,0,1,1-1.04c.582,0,.915.374.915,1.04v2.288h.79V87.486a.93.93,0,0,1,1-1.04c.582,0,.915.374.915,1.04v2.288Zm12.977-3.993H49.7V84.574h-.79v1.206h-.832v.707h.832v1.872c0,.915.333,1.456,1.331,1.456a2.327,2.327,0,0,0,1.081-.291l-.25-.665a1.369,1.369,0,0,1-.749.208A.582.582,0,0,1,49.7,88.4V86.488h1.456Zm7.362-.125a1.244,1.244,0,0,0-1.081.582v-.457h-.79v3.993h.79V87.527c0-.665.333-1.081.873-1.081a2.435,2.435,0,0,1,.541.083l.25-.749a1.468,1.468,0,0,0-.582-.125Zm-11.147.416a2.855,2.855,0,0,0-1.622-.416c-1,0-1.622.457-1.622,1.248,0,.665.458,1.04,1.331,1.165l.416.042c.458.083.749.25.749.458,0,.291-.333.5-.957.5a2.194,2.194,0,0,1-1.331-.416l-.416.624a3.013,3.013,0,0,0,1.705.5c1.165,0,1.788-.541,1.788-1.289,0-.707-.5-1.04-1.373-1.165l-.416-.042c-.374-.042-.707-.166-.707-.416,0-.291.333-.5.79-.5a3,3,0,0,1,1.248.333Zm12.062,1.705a1.965,1.965,0,0,0,2.08,2.08,2.07,2.07,0,0,0,1.414-.457l-.416-.624a1.681,1.681,0,0,1-1.04.374,1.334,1.334,0,0,1,0-2.662,1.681,1.681,0,0,1,1.04.374l.416-.624a2.07,2.07,0,0,0-1.414-.457,1.842,1.842,0,0,0-2.08,2Zm-5.615-2.121a1.913,1.913,0,0,0-1.955,2.08,1.954,1.954,0,0,0,2.038,2.08,2.544,2.544,0,0,0,1.622-.541l-.416-.582a1.988,1.988,0,0,1-1.165.416,1.168,1.168,0,0,1-1.206-1.04h2.953v-.333a1.9,1.9,0,0,0-1.872-2.08Zm0,.749a.994.994,0,0,1,1.04,1H52.738a1.032,1.032,0,0,1,1.081-1ZM43.047,87.777v-2h-.79v.5a1.529,1.529,0,0,0-1.289-.582,2.084,2.084,0,0,0,0,4.159,1.529,1.529,0,0,0,1.289-.582v.5h.79Zm-3.244,0a1.231,1.231,0,1,1,1.248,1.331A1.247,1.247,0,0,1,39.8,87.777Zm30.737-2.121a1.244,1.244,0,0,0-1.081.582v-.457h-.79v3.993h.79V87.527c0-.665.333-1.081.873-1.081a2.436,2.436,0,0,1,.541.083l.25-.749a1.208,1.208,0,0,0-.582-.125ZM67.5,87.777v-2h-.79v.5a1.529,1.529,0,0,0-1.289-.582,2.084,2.084,0,0,0,0,4.159,1.529,1.529,0,0,0,1.289-.582v.5h.79Zm-3.244,0a1.231,1.231,0,1,1,1.248,1.331,1.247,1.247,0,0,1-1.248-1.331Zm11.272,0V84.2h-.79v2.08a1.529,1.529,0,0,0-1.289-.582,2.084,2.084,0,0,0,0,4.159,1.529,1.529,0,0,0,1.289-.582v.5h.79Zm-3.244,0a1.231,1.231,0,1,1,1.248,1.331A1.247,1.247,0,0,1,72.286,87.777Z" transform="translate(-29.404 -52.257)"/><rect class="b" width="14.433" height="23.541" transform="translate(17.011 3.203)"/><path class="c" d="M44.409,22.373a15.013,15.013,0,0,1,5.7-11.771,14.973,14.973,0,1,0,0,23.541A14.951,14.951,0,0,1,44.409,22.373Z" transform="translate(-25.9 -7.4)"/><path class="d" d="M108.407,22.373A14.957,14.957,0,0,1,84.2,34.144a15.006,15.006,0,0,0,0-23.541,14.957,14.957,0,0,1,24.207,11.771Z" transform="translate(-59.952 -7.4)"/></g></svg>