<svg xmlns="http://www.w3.org/2000/svg" width="11" height="12" viewBox="0 0 11 12"><defs><style>.a{opacity:0.495;}.b{fill:#231f20;}</style></defs><g class="a"><path class="b" d="M5.5,12C2.851,12,0,11.516,0,10.453c0-1.082,2.825-1.407,4.04-1.5C2.966,7.222,1.687,4.9,1.687,3.708A3.765,3.765,0,0,1,5.5,0,3.765,3.765,0,0,1,9.309,3.708c0,1.2-1.28,3.515-2.354,5.248,1.215.09,4.042.418,4.045,1.5C11,11.516,8.149,12,5.5,12ZM4.35,9.444h0c-2.671.15-3.826.739-3.826,1.006,0,.352,1.755,1.039,4.973,1.039s4.974-.686,4.977-1.039c0-.268-1.156-.857-3.827-1.006-.486.764-.876,1.344-.931,1.408a.282.282,0,0,1-.214.109.292.292,0,0,1-.221-.109c-.048-.062-.419-.6-.931-1.408ZM5.5.509a3.246,3.246,0,0,0-3.285,3.2c0,1.54,2.514,5.4,3.285,6.541.77-1.143,3.288-4.992,3.288-6.541A3.248,3.248,0,0,0,5.5.509Z"/><path class="b" d="M1.5,3A1.5,1.5,0,1,1,3,1.5,1.5,1.5,0,0,1,1.5,3ZM1.5.473A1.026,1.026,0,1,0,2.526,1.5,1.028,1.028,0,0,0,1.5.473Z" transform="translate(4 2)"/></g></svg>