<svg xmlns="http://www.w3.org/2000/svg" width="33.173" height="30.466" viewBox="0 0 33.173 30.466"><defs><style>.a{fill:#ffcbcc;}.b{fill:#e03a3e;}</style></defs><g transform="translate(0 0)"><path class="a" d="M230.717,8.271a1.882,1.882,0,0,1-3.764,0C226.953,7.231,230.717,7.231,230.717,8.271Zm0,0" transform="translate(-212.248 -7.006)"/><path class="a" d="M60.231,44.574A13.563,13.563,0,0,0,46.668,58.137H73.794A13.563,13.563,0,0,0,60.231,44.574Zm0,0" transform="translate(-43.644 -41.686)"/><path class="a" d="M24.872,355.058l-6.2-4.212a.855.855,0,0,0-1.188.228l-.906,1.336a.855.855,0,0,0,.227,1.187l6.2,4.212a.855.855,0,0,0,1.188-.228l.906-1.336A.855.855,0,0,0,24.872,355.058Zm0,0" transform="translate(-15.366 -327.976)"/><path class="b" d="M31.758,15.57H30.606a13.908,13.908,0,0,0-1.272-5.029.485.485,0,1,0-.88.409,12.946,12.946,0,0,1,1.18,4.621H7.406a.485.485,0,1,0,0,.97H31.758a.445.445,0,0,1,.445.445v.592a.445.445,0,0,1-.445.445H1.416a.445.445,0,0,1-.445-.445v-.592a.445.445,0,0,1,.445-.445H5.144a.485.485,0,1,0,0-.97H3.54A13.076,13.076,0,0,1,15.714,3.4h.005q.2-.013.392-.02l.077,0,.137,0c.087,0,.174,0,.261,0,.116,0,.232,0,.347.005l.1,0c.089,0,.178.008.267.012l.141.008a13.086,13.086,0,0,1,9.93,5.656.485.485,0,1,0,.8-.549,14.058,14.058,0,0,0-9.6-5.963,2.363,2.363,0,0,0,.378-1.281c0-.264-.118-.75-.906-1.04a4.864,4.864,0,0,0-2.923,0c-.788.29-.906.776-.906,1.04A2.366,2.366,0,0,0,14.6,2.543,14.051,14.051,0,0,0,2.567,15.57H1.416A1.418,1.418,0,0,0,0,16.985v.592a1.417,1.417,0,0,0,1.416,1.416H6.643a6.012,6.012,0,0,0-.745.6l-.01.009a.44.44,0,0,0-.042.045l-2.3,2.8a1.338,1.338,0,0,0-1.826.379L.811,24.161a1.342,1.342,0,0,0,.356,1.861l6.2,4.212a1.331,1.331,0,0,0,.75.232,1.362,1.362,0,0,0,.255-.024,1.331,1.331,0,0,0,.857-.564l.906-1.336a1.342,1.342,0,0,0-.356-1.861l-.035-.024a3.137,3.137,0,0,1,1.633-.986,10.664,10.664,0,0,1,3.923.066,9.27,9.27,0,0,0,3.955-.213l1.787-.494A9.2,9.2,0,0,0,24.3,23.383l.022-.018,3.068-2.717a1.5,1.5,0,0,0,.456-1.655h3.914a1.417,1.417,0,0,0,1.416-1.416v-.592a1.417,1.417,0,0,0-1.416-1.416ZM16.587.971a2.273,2.273,0,0,1,1.4.315,1.4,1.4,0,0,1-.618,1.14l-.283-.013-.095,0c-.135,0-.269-.006-.4-.006-.093,0-.188,0-.283,0l-.139,0L16,2.416l-.19.009a1.4,1.4,0,0,1-.618-1.139,2.273,2.273,0,0,1,1.4-.315Zm3.48,18.257a1.6,1.6,0,0,0-.128-.234h4.655l-2.013,1.332-2.869.83-.1,0A1.651,1.651,0,0,0,20.067,19.227ZM14.8,18.993l-.7.146-.541-.146ZM9.332,28l-.906,1.336a.37.37,0,0,1-.514.1l-6.2-4.212a.37.37,0,0,1-.1-.513L2.52,23.37a.369.369,0,0,1,.514-.1l.335.227h0l5.865,3.984a.37.37,0,0,1,.1.514Zm17.46-8.115a.427.427,0,0,0-.034.027l-3.071,2.72a8.235,8.235,0,0,1-2.9,1.465L19,24.588a8.285,8.285,0,0,1-3.538.191,11.554,11.554,0,0,0-4.3-.054,4.122,4.122,0,0,0-2.22,1.383L4.35,22.993l2.226-2.7a4.568,4.568,0,0,1,2.932-1.3h.02a3.658,3.658,0,0,1,1.008.188l.214.059,3.213.867a.485.485,0,0,0,.226.006l4.208-.877a.723.723,0,0,1,.55.107.651.651,0,0,1,.231.276.679.679,0,0,1-.314.877l-1.436.76a.485.485,0,0,0,.238.914l2.13-.046a.489.489,0,0,0,.124-.019l3-.868a.486.486,0,0,0,.133-.061l3.027-2c.254-.157.592-.286.772-.021a.578.578,0,0,1-.063.73Zm0,0" transform="translate(0 0)"/></g></svg>