<svg xmlns="http://www.w3.org/2000/svg" width="46.799" height="13.095" viewBox="0 0 46.799 13.095"><defs><style>.a{fill-rule:evenodd;}</style></defs><path class="a" d="M33.838,30.254v-.037c.212.053.255-.072.255-.247,0-.034-.021-.192.017-.192a1.367,1.367,0,0,1,.056-.132,3.063,3.063,0,0,1,.036-.416c0-.015.037.022.037-.019v-.145c0-.032.084-.035,0-.055a4.538,4.538,0,0,0,.072-.492c0-.067.073-.143.073-.194,0-.115.074-.121.074-.236,0-.029.058-.112.072-.175h.037c.014-.1.026-.2.038-.293-.074-.015.045-.247-.038-.256.06-.227-.043-.218-.255-.207l-.33.018c-.2.011-.028.022-.183.061-.178.044-.02.035-.072.055a.852.852,0,0,0-.146.072,1.561,1.561,0,0,1-.183.037c-.008,0-.146.058-.146.056,0,.075-.548.034-.548.11,0,.023-.117.054-.154.054s-.082.06-.1.073-.082-.015-.109,0c-.049.1-.083.085-.184.11-.078.16-.028.008-.109.073-.078.117-.117.119-.255.146-.05.1-.083.084-.184.11a.275.275,0,0,1-.183.146c-.049.085-.1.171-.147.255H31.2v.074c-.033.015-.038.008-.065.03-.064.044-.037.038-.1.11-.008.01-.076.078-.078.083-.033.044,0,.07-.047.124s-.04.08-.073.133a.245.245,0,0,0-.127.161c-.024.071,0,.145-.063.164.012.037-.006.091.006.128a.2.2,0,0,0-.1.152c0,.085-.041.12-.124.2a6.83,6.83,0,0,0-.395.927c.084-.446.32-1.347.4-1.794a5.422,5.422,0,0,0,.167-.825c.006-.121.165-.36.133-.422-.075-.156-.407-.058-.563-.047-.015-.091-.131.017-.146-.073-.044-.008-.256.091-.256.018,0-.051-.031,0-.037.018l-.11-.037c-.016.1-.144,0-.146,0a1.191,1.191,0,0,1-.193.037c-.106,0-.212,0-.317,0,0,0,0-.037-.038-.037v.037l-.308.02-.825.053c-.011.038-.04.146-.09.146s-.019.129-.019.164-.072.084-.072.156c0,.092-.056.142,0,.155.007.139-.081-.015,0,.146h-.037c0,.065.06.071.037.147,0-.018-.037.047-.037.081,0,.07-.073.044-.073.137,0,.067.015.065-.036.073-.015.071.031.091,0,.183.047.064,0,.051,0,.073a2.607,2.607,0,0,0-.036.27c0,.043-.106.347-.146.352l.037.11c-.106.01,0,.21-.11.219a.573.573,0,0,1-.007.359c-.01.063-.019.127-.03.19-.006.026-.037-.038-.037.028,0,.1-.026.1-.11.155-.011.088,0,.225-.072.255.013.072.025.146.037.219-.124.006.015.3,0,.366-.068.02-.053.332-.037.365h-.036c.013.049.024.1.036.146h-.036c.013.062.024.124.036.185-.11-.02-.009.4-.092.4a.629.629,0,0,1-.056.125,1.987,1.987,0,0,1-.09.351,6.489,6.489,0,0,0-.128.754c0,.069-.037.069-.037.174,0,.076-.145.121-.16.235-.017.133-.036.267-.055.4-.012.1-.026.2-.041.3a1.386,1.386,0,0,0,.351.023c.112-.01.214-.023.325-.023a4.615,4.615,0,0,1,1.006,0l.109-.035c.023.09.33-.008.33.054s.56.131.657.122c.12-.012.183-.042.183-.16v-.146c0-.042.029,0,.036-.016a2.462,2.462,0,0,0,.11-.63c0-.056.051-.228.059-.336,0-.033-.008-.2.033-.2s.021-.022.026-.051c.019-.133.1-.267.1-.343a1.363,1.363,0,0,1,.073-.3c.006-.024.037.033.037-.024a.45.45,0,0,1,0-.122c0-.011.074-.074.074-.1,0-.26.081-.589.11-.892,0,0,.072-.073.072-.073a.46.46,0,0,0,0-.124c0-.069.142-.117.165-.205.028-.113.084-.084.115-.208.024-.1.02-.176.1-.232a.455.455,0,0,0,.163-.146c.086-.058.033.078.11-.073.072-.044.041.047.11-.056.1-.153.326-.1.439-.274.066-.049.04.049.109-.055s.037-.011.11-.055a.28.28,0,0,1,.183-.128,3.105,3.105,0,0,1,.353-.128.544.544,0,0,0,.142-.037h.145c.043,0,0-.034.019-.037.061-.012.012.049.073.037.015,0-.022-.037.014-.037h.191c.07,0,.031-.036.069-.036s0,.036.076.036c.033,0,.161-.02.161.018,0,.078.184-.022.22-.018.013.1.244.035.255.037s-.017.037.01.037h.163c.071,0,.218.036.229-.037A.4.4,0,0,1,33.838,30.254Zm-7.13,4.278c-.008.044.021.078-.037.073C26.7,34.468,26.785,34.423,26.708,34.532Zm.146-.512c-.012.027.011.05-.037.038.04-.08.068-.2.145-.219A.321.321,0,0,1,26.854,34.019Zm1.425-4.1c.069.017.1-.071.155-.12a.426.426,0,0,0,.11-.1c.052-.092.125-.083.192-.167.032-.042.028-.12.083-.12.114,0,.043-.015.108-.083a.215.215,0,0,1,.083-.027.311.311,0,0,1,.075-.133c.043-.047.12-.159.181-.159a3.713,3.713,0,0,0,.286-.294c.149-.162.314-.312.461-.473.093-.1.2-.253.35-.294.019-.008-.019-.041.036-.037-.014,0,.042.034.073.037a.762.762,0,0,0-.073.293c-.027.028-.161.026-.2.034-.026,0-.1.119-.15.142a.465.465,0,0,1-.122.043c-.019.017.015.089,0,.109-.083.024-.087.026-.11.11-.122.033-.189.135-.3.192-.09.047-.142.146-.216.229-.011.045-.035.063-.075.053-.069,0-.026.044-.072.079a2.873,2.873,0,0,1-.3.244.191.191,0,0,0-.078.079c-.052.1-.064.049-.131.115a.2.2,0,0,0-.043.1c-.056.015-.146.006-.146.074s-.317.276-.377.364c-.022.028-.118.077-.1,0A.81.81,0,0,0,28.279,29.924Zm-.292-1.938c.208-.061.026.068.012.11-.031.094-.052.167-.121.183C27.913,28.181,27.951,28.084,27.987,27.986Zm-.074,2.3c.14,0,.044.046-.036.073Zm-.146.146c.078.021.007.1-.037.109C27.743,30.509,27.754,30.472,27.768,30.435Zm2.6-1.535c-.067.019-.049.114-.1.179a1.626,1.626,0,0,1-.263.208c-.043.037-.054.09-.114.09-.1,0,.01.046-.037.073-.151.038-.154.117-.255.176s-.14.158-.257.189c-.02.068-.11.182-.183.182s-.037.123-.141.122c-.079,0-.179.138-.243.189-.042.032-.188.2-.193.2-.128,0-.083.1-.191.156-.178.092-.272.28-.474.369-.047.02-.112.053-.112.115,0,.035-.053.018-.081.018-.058,0-.024.049-.065.079-.087.065-.142.128-.256.213-.017-.066.178-.2.257-.264.035-.028.035-.017.035-.065s.073-.072.11-.128c.049-.073.106-.05.168-.124.043-.053.09-.151.16-.151a.638.638,0,0,0,.184-.146s.17-.188.183-.191a1.114,1.114,0,0,0,.307-.192,1.449,1.449,0,0,0,.258-.246c.037-.047.059,0,.093-.028.066-.055-.058-.024.077-.106.053-.033.084-.087.138-.119.16-.1.006-.017.076-.1.036-.043.073.055.073-.036,0-.069.071-.047.123-.076a.206.206,0,0,0,.1-.143c.037-.011.083-.011.1-.054a.709.709,0,0,1,.172-.185C30.087,29.062,30.441,28.636,30.364,28.9Zm2.6-1.061c-.121.072-.154.194-.219,0C32.8,27.821,32.944,27.748,32.96,27.839ZM21.295,33.544h.037c-.047-.1.108-.244.128-.366,0-.023.054-.183.073-.183a.382.382,0,0,0,.092-.191,1.452,1.452,0,0,1,.091-.174c.025,0,.112-.224.128-.256a1.184,1.184,0,0,0,.056-.111c.051,0-.028-.078-.019-.108a.964.964,0,0,0,.11-.207c0-.153.073-.151.073-.288a2.793,2.793,0,0,0,.037-.822c.143-.026-.069-.633.073-.659,0-.06-.05-.076-.036-.146.008-.046.045.01.036-.037-.124.023.008-.219-.092-.219,0,0-.055-.094-.055-.1,0-.087.018-.072-.073-.117-.023-.092-.021-.134-.1-.2a.7.7,0,0,1-.226-.379c-.017-.044-.071-.158-.108-.158-.1,0-.071-.031-.118-.073-.06-.122-.439-.214-.439-.4,0-.076-.276-.129-.351-.153-.1-.033-.1-.055-.161-.139L20.178,28c-.149-.029-.128-.128-.288-.128-.031,0-.034-.037-.108-.037h-.244c-.006,0,.015.037-.019.037s-.012-.037-.017-.037c-.156,0-.312,0-.468,0a2,2,0,0,1-.264-.128s-.239-.092-.239-.092a5.669,5.669,0,0,0-1.045-.007c-.214.037-.367.109-.545.153a.67.67,0,0,1-.11.056.682.682,0,0,1-.11.054c-.017,0-.183.142-.183.128s-.205.1-.237.11c-.073.024-.087.065-.128.129-.024.017-.086-.017-.11,0-.042.081-.189.244-.292.219.006-.013.1-.081.076-.1-.051-.044-.008-.054,0-.121,0,0-.036.011-.036-.019s.036-.01.036-.018c.029-.108-.017-.209.073-.292,0-.2,0-.249-.2-.271a1.049,1.049,0,0,0-.26,0c-.14.018-.071.052-.092.056-.072.012-.147-.009-.219,0-.016,0,.026.037-.024.037a.918.918,0,0,0-.124,0,.941.941,0,0,1-.146.055c0,.039-.164.018-.2.018-.069,0-.09.037-.111.037-.039,0,0-.037-.053-.037h-.855c-.063,0-.042.007-.09.033s-.2-.017-.263-.022a1.9,1.9,0,0,0-.439.026c.013.073.025.146.036.219a2.731,2.731,0,0,0-.128.585c-.006.06-.012.121-.018.183,0,.024-.036-.035-.036.028s-.037.077-.037.1v.233c0,.071-.037.02-.037.069,0,.175-.11.316-.11.466a4.274,4.274,0,0,1-.074.535.3.3,0,0,0-.037.123c0,.038-.036.024-.036.1s-.033-.015-.046.129c-.006.067-.012.134-.018.2,0,.033-.006.067-.009.1H12.26a.578.578,0,0,0-.049.183c-.007.067-.06.218-.06.235a4.22,4.22,0,0,1-.073.533.078.078,0,0,0-.037.073v.256c0,.094-.036.144-.036.275,0,.037-.037,0-.037.068a1.68,1.68,0,0,1,0,.2.33.33,0,0,0-.037.125c0,.041-.037.014-.037.1,0,.107-.086.158-.037.256a.174.174,0,0,0-.072.124c0,.119-.037.188-.037.262a2.052,2.052,0,0,1-.036.213c0,.111-.037.191-.037.252v.2c0,.056-.035.034-.037.043a1.433,1.433,0,0,0,0,.164c0,.073-.036.037-.036.076,0,.1-.037.412-.11.42.062.124-.036.062-.036.182,0,.072-.035.061-.037.073a2.26,2.26,0,0,1-.073.476c-.012.034-.037-.028-.037.065a.2.2,0,0,1-.037.118c-.012.037-.022.219-.056.219a3.647,3.647,0,0,1-.091.46c0,.258-.146.378-.146.618,0,.044-.037,0-.037.031v.179c0,.145-.056.171-.11.246a.457.457,0,0,0-.071.225c.01.18.045.18.217.2a.349.349,0,0,0,.2-.011c.083-.042.182.056.275.028.006,0-.012-.035.028-.035h.423c.057,0,.055.035.061.035.1.016.393.081.4.038a2.66,2.66,0,0,0,.448.073c.031,0,.137-.02.137.017s.031.006.036-.017l.183.035c.024-.1.112,0,.183,0,.028-.067.138-.034.221-.061.174-.056.087-.225.071-.377.108-.01-.033-.21.074-.219-.012-.037-.025-.073-.037-.11h.037c-.012-.037-.025-.073-.037-.11.088-.017.021-.275.037-.364h.018c.049,0,.057-.031.026-.11.007-.111.014-.219.022-.331a1.09,1.09,0,0,1,.062-.218c-.024,0,.094-.263.091-.258.042-.124.031-.2.073-.328,0,.008.115-.256.091-.256.053,0,.057-.256.11-.256.032,0,.11-.3.118-.344.023-.137.031,0,.046.016.034.03.073-.042.073.027,0,.1.017.088.11.119.078.115.1.114.237.141.047.01.1.115.129.152.072.071.029-.09.11.072l.274.028c.356.035,0,.008.092.044.031.012.079-.014.109,0a.624.624,0,0,0,.146.073.776.776,0,0,0,.11.056c0,.038.164.017.2.017a4.493,4.493,0,0,0,.906-.008,7.611,7.611,0,0,1,1.1-.1,2.112,2.112,0,0,0,.248-.1c0-.02.112-.054.146-.054.1,0,.049-.037.154-.037.049,0,.2-.054.3-.065.115-.011.1-.03.165-.118.027-.016.079.01.11,0,.065-.022-.142-.046.064-.046a2.115,2.115,0,0,0,.228.028.288.288,0,0,0,.184-.129c.027-.014.085.017.109,0,.024-.037.05-.11.1-.11a.52.52,0,0,0,.123,0c.076-.153.024-.016.11-.072.063-.037.116-.088.18-.121.109-.054.033-.085.143-.117.151-.043.183-.167.3-.233s.144-.217.254-.292c.051-.034.1-.061.155-.1s0-.054.028-.1c.1-.049.084-.081.11-.182C21.245,33.651,21.318,33.63,21.295,33.544ZM11.056,37.86h-.073C11.014,37.755,11.1,37.7,11.056,37.86Zm.549-2.486c.026-.054.02-.084.073-.073.029.012-.065.069-.073.073C11.617,35.348,11.608,35.372,11.6,35.374Zm.8-3.584c-.024.088-.111.087-.119.152a.075.075,0,0,1-.063.068c.042-.107.049-.3.219-.256-.026.035,0,.01-.037.036C12.381,31.888,12.451,31.758,12.409,31.789Zm.695-3.475c.044-.015.125-.194.187-.26.049-.051.146-.081.076.015a.224.224,0,0,0-.043.1h-.073c-.013.047-.068.183-.128.183s-.044.142-.128.146A.485.485,0,0,1,13.1,28.314Zm.074,7.717c-.073-.022-.074.008-.092.073-.037.151-.078.026-.1.047a2.471,2.471,0,0,0,.189-.2c.012-.06.025-.121.037-.182a.244.244,0,0,0,.091-.035c.012-.014.006-.09.018-.111.144-.072.107-.283.329-.219C13.592,35.674,13.307,35.807,13.177,36.031Zm.4-3c.028-.054.02-.084.073-.073.029.013-.065.067-.073.073C13.591,33.008,13.582,33.031,13.58,33.032Zm.256-.183-.11.038C13.765,32.808,13.8,32.78,13.836,32.849Zm.146,2.488h-.073c.02-.08.054-.164.146-.148A.564.564,0,0,0,13.981,35.337Zm.512-3.074a.453.453,0,0,0-.255.293c-.078.02-.215.061-.238.129a.14.14,0,0,1-.128.092c-.052,0-.052-.038,0-.038s.127-.164.18-.212c.081-.076.387-.4.478-.373-.011.037-.024.073-.036.108C14.457,32.276,14.505,32.228,14.493,32.263Zm-.4-1.279c.074.022.032,0,.074.038C14.091,31,14.132,31.026,14.09,30.984Zm.439.695c-.073-.03,0-.137,0,0Zm0-2.779c.04.136-.159.212-.219.33h-.073a.37.37,0,0,1-.07.133.65.65,0,0,1-.223.2c-.009.01-.061.124-.073.146H13.8a.24.24,0,0,1-.028.081c-.063.066-.083.03-.119.137-.03.023-.034.035-.073.037a.384.384,0,0,1,.049-.113c.064-.128.051-.007.1-.071.013-.06.087-.255.165-.255a.835.835,0,0,1,.14-.17,1.742,1.742,0,0,0,.135-.178c-.006-.044.024-.069.091-.072.1-.062.094-.064.128-.165h.073c.064-.073.128-.146.192-.219.019-.057.053-.081.1-.072.092,0-.006-.037.036-.074a.554.554,0,0,0,.146-.072c-.068.1-.1.15-.146.219-.071.062-.077,0-.109.11-.037.042-.073-.053-.073.037C14.6,28.912,14.577,28.912,14.53,28.9Zm.074,5.741c-.073-.031,0-.138,0,0Zm.329-3.292c-.092.024-.162.091-.256.11-.04.025.038.1-.073.074,0,0,.2-.351.183-.33.051-.074.134-.2.219-.22a.956.956,0,0,0-.073.367C14.817,31.381,14.932,31.193,14.932,31.35Zm5.375-3.035c.212-.06.033.1-.03.149s-.189.046-.189.107-.1.094-.15.121c-.1.056-.072.135-.187.135-.068,0,.017.067-.09.08-.05.007-.081.049-.121.067.04-.065.115-.094.156-.158.071-.112.056,0,.137-.062C19.945,28.561,20.193,28.505,20.308,28.314Zm-.256,4.828c.027-.053.02-.084.074-.073.029.013-.065.069-.074.073C20.063,33.118,20.055,33.139,20.052,33.142Zm-.658-4.828c.094.027.25-.255.411-.255.1,0-.067.08-.085.094a.589.589,0,0,1-.252.161v.074a.36.36,0,0,0-.146.073.556.556,0,0,1-.073.055.668.668,0,0,1-.182.165c-.086,0-.1.121-.183.146C19.006,28.613,19.269,28.529,19.394,28.314Zm-.366,3.768c.111.027.033-.046.073-.073s.183-.067.183-.128c0,.033.183-.211.183-.092,0,.058-.256.172-.256.2s-.062.091-.073.128h-.072c-.019.069-.026.066-.074.11-.031.038-.14.094-.183.146v.073a.853.853,0,0,0-.11.072h-.073c-.016.053,0,.038-.037.073-.01,0,.012.042-.037.038s.047-.125.06-.129a.209.209,0,0,0,.124-.164A.456.456,0,0,0,19.028,32.082Zm-.037-2.67a.278.278,0,0,1,.11-.11C19.11,29.376,19.059,29.407,18.991,29.412Zm.329-.256c0-.139.073-.031,0,0Zm-1.609-.146c.116.028.031-.074.11-.074s.158-.151.256-.183v-.072c.037-.011.083-.01.1-.054a.71.71,0,0,1,.16-.165h.074c.035-.028-.034-.015.055-.073.04-.026.2-.154.2-.183-.012-.047.012-.065.073-.055.182-.044-.006-.031.073-.091.087-.022.113-.088.183-.037-.052.085-.143.127-.21.2-.013.049-.04.07-.083.06-.094,0,.009.042-.036.072-.152.042-.211.153-.311.219C18.268,28.627,17.746,29.119,17.711,29.01Zm.841.109h-.036a.685.685,0,0,1,.256-.219C18.718,28.992,18.619,29.039,18.552,29.119Zm.219.439c-.037.054-.049.1-.11.109C18.7,29.614,18.71,29.568,18.772,29.559Zm-.255.218c.027-.053.019-.083.072-.072.03.013-.064.068-.072.072C18.528,29.753,18.518,29.776,18.516,29.777Zm-.11-.474c-.073-.023-.032,0-.074-.037C18.406,29.287,18.365,29.261,18.407,29.3Zm-.4.292c.028-.053.02-.083.073-.073.029.014-.064.068-.073.073C18.016,29.571,18.007,29.593,18,29.595Zm-.329-.512h.036c.029.014-.065.069-.073.073C17.651,29.132,17.662,29.107,17.675,29.083Zm-2.45,1.646c.053.015.037,0,.072.037-.059.035-.083.1-.146.109a.6.6,0,0,1,.074-.146C15.3,30.751,15.191,30.794,15.225,30.728Zm2.267,2.486c-.087,0-.351.042-.367-.037-.047-.007-.11.037-.174.037h-.382c-.064,0-.243-.061-.357-.073a.717.717,0,0,1-.585-.255c-.066-.05-.04.049-.11-.056s-.089-.015-.146-.129c-.092-.076-.208-.137-.238-.255-.014-.057-.055-.071-.055-.092,0-.122-.037-.149-.037-.238s.068-.092,0-.109l.037-.11c-.059-.006-.013-.222-.037-.292.008-.009.055-.073.055-.073.04,0,.033-.187.036-.22.01-.124-.019-.187.088-.246s.15-.082.187-.192c.017-.018.109-.1.109-.137,0-.109.11-.1.11-.183,0-.14.163-.2.244-.313a.7.7,0,0,1,.451-.28.8.8,0,0,0,.073-.073c.018,0,.144.044.146.073l.183-.037c.015.085.475.037.575.037.068,0,.284.147.3.036a1.692,1.692,0,0,1,.475.11c.019.009-.021.033.017.04l.146.025a.756.756,0,0,1,.167.1c0,.04.149.049.183.055.011.038.01.083.055.1.128.037-.006.035.056.087.054.014.1.025.128.082a1.405,1.405,0,0,1,.033.718,1.71,1.71,0,0,1-.233.844c-.022.026-.148.18-.148.185a.584.584,0,0,1-.183.218c-.032.06,0,.146-.11.146-.069,0-.082.091-.11.146-.046.049-.047-.038-.109.056A.394.394,0,0,1,17.82,33c-.087.03-.1.022-.146.11C17.574,33.129,17.541,33.118,17.492,33.215Zm.731-.256c.027-.054.02-.083.073-.072.029.012-.064.067-.073.072C18.236,32.934,18.226,32.957,18.223,32.959Zm-.183.183c-.01.088-.285.212-.365.256C17.726,33.311,17.936,33.118,18.04,33.142Zm-.109.805c-.149.049-.21.217-.366.255.065-.073.128-.145.192-.219a.233.233,0,0,1,.137-.11V33.8c.054-.037.137-.148.183-.148.115,0,.069-.182.183-.182.062,0,.077-.061.11-.11.04-.03.062.014.1-.035.059-.072.119-.206.227-.185-.028.054-.042.146-.11.146s-.049.1-.135.1c-.035,0-.122.149-.154.168-.075.046-.094.16-.183.185-.071.023-.093.064-.113.135C17.974,33.912,17.9,33.836,17.931,33.947Zm1.243.145c-.092-.026-.11.121-.219.146-.044.034.056.072-.037.072-.058,0-.037.028-.037.083s-.066.05-.11.065l-.183.256c-.033.044-.072-.056-.072.037,0,.067-.076.064-.124.1-.072.06-.059.035-.059.124,0,.056-.062.041-.1.067-.015.011-.117.11-.117.09,0,.023-.132.185-.145.129a2.271,2.271,0,0,1,.182-.256,1.054,1.054,0,0,0,.228-.256c.068-.121.058-.015.1-.073a.259.259,0,0,1,.085-.161A1.879,1.879,0,0,0,19,34.035c.124-.174.05-.012.134-.085.069-.061-.078-.037.065-.094.057-.022.069-.072.082-.126a.423.423,0,0,0,.184-.1c.093-.09.154-.2.291-.225a.388.388,0,0,1,.22-.219,1.39,1.39,0,0,1-.33.366c-.048.033-.11.047-.11.108s-.09.1-.128.148l-.165.218C19.217,34.06,19.147,33.982,19.174,34.092Zm2.011-1.315c.027.11-.041.034-.072.072v.073a.29.29,0,0,0-.129.064c-.049.04-.043.083-.091.083-.1,0-.046.146-.146.146-.034,0-.124.121-.146.146s-.016.049-.037.073c-.063.091-.126.047-.171.138-.081.159-.265.224-.376.358-.083.1-.154.08-.21.2-.031.067-.086.083-.144.115-.077.043-.051.107-.106.162s-.09.024-.127.054c-.041.057-.143.269-.22.256a2.217,2.217,0,0,1,.521-.633,2.28,2.28,0,0,0,.21-.244h.074a.32.32,0,0,1,.146-.146c.051-.05,0-.072.11-.111.068-.076.229-.328.33-.328a.113.113,0,0,0,.11-.11c0-.031.179-.167.219-.219H21v-.073a.571.571,0,0,0,.2-.142c.049-.044.317-.388.38-.332C21.617,32.4,21.273,32.793,21.185,32.777Zm17-5.048c-.065-.064-.1-.073-.238-.073-.081,0-.158.052-.251.046a2,2,0,0,0-.364-.022c-.051.006-.185.085-.218.085-.084,0-.3-.04-.318.037-.1-.02-.159-.049-.255,0-.019-.125-.384.051-.4-.073L36,27.767c0-.067-.253-.067-.255,0a.062.062,0,0,1-.069-.024c-.015-.024-.2.019-.224.024-.06.134-.179.3-.11.439-.049.006-.087.292-.112.28a.032.032,0,0,1,.04.013c0,.113-.11.3-.11.394a.687.687,0,0,1-.054.191c-.076,0-.035.732-.11.732-.094,0-.108.694-.184.694-.1,0-.121.472-.127.549-.119.058-.085.2-.1.321-.006.063-.01.127-.015.189.008.038.051.008.038.073-.065.027-.049.091-.062.171a.09.09,0,0,1-.085.122c.012.049.025.1.036.146-.03.035-.036-.056-.036.036.011.046-.015.071-.074.074.013.072.024.146.037.219-.1,0-.015.255-.09.255.015,0-.092.346-.092.38s-.037.024-.037.1c0,.042-.044.159-.048.248-.008.142.035.408-.1.475-.018.076,0,.164-.014.242s.032.637-.042.637c-.041,0-.044.256-.074.256a1.353,1.353,0,0,1-.128.33c.012.121.033.145.146.182.071-.094.078-.142.2-.155l.274-.027v.037c.009,0,.085-.1.109-.012.009.027.122.012.15.012.074,0,.36-.042.363.035.059.01.074-.054.146-.035.008.092.26.022.329,0,0,.108.255,0,.293,0v.035c.084,0,.093-.041.168,0s.049-.046.124-.031c.037,0,.045.053.109.035.016-.067.313-.067.33,0,.082-.031.285-.064.306-.155.013-.056,0-.1.059-.1.01-.047-.037-.128-.037-.185V34.72c0-.035.037-.1.037-.078,0-.061-.044-.13-.037-.183.1-.019,0-.694.128-.694.027,0,.056-.189.056-.233a2.02,2.02,0,0,1,.165-.353c.037,0,.031-.08.036-.11.011-.061.092-.152.092-.168,0-.033-.02-.124.018-.124-.008,0,.059-.085.056-.074.033-.1.015-.179.037-.255a.241.241,0,0,0,.036-.119c0-.085.037-.038.037-.092,0-.087.027-.054.037-.081s.04-.13.037-.11a1.28,1.28,0,0,0,0-.155c0-.084.027-.075.037-.1a.261.261,0,0,1,.036-.073s.042-.143.037-.109a3.049,3.049,0,0,0,0-.406,3.912,3.912,0,0,1,.136-.668c.037-.2.058-.377.084-.571,0-.01.037,0,.037-.065a.29.29,0,0,1,.037-.119.9.9,0,0,0,0-.328c.074,0,.037-.176.037-.243,0-.048.11-.153.11-.233,0-.154.109-.27.109-.448a1.809,1.809,0,0,1,.109-.43c0-.009.068-.03.051-.1s.078-.1.045-.206C38.42,27.649,38.313,27.71,38.19,27.73ZM34.5,33.435c-.06.034-.083.1-.146.11C34.358,33.463,34.483,33.3,34.5,33.435Zm.622,1.719h-.255a.338.338,0,0,1,.183-.183V34.9l.146-.037c.039-.02-.039-.1.073-.074A.867.867,0,0,0,35.117,35.153Zm2.524-5.7c.056.022.058.065-.018.092-.048,0-.067.015-.055.054,0,.09-.035,0-.073.037a.484.484,0,0,1-.219.219C37.4,29.716,37.519,29.583,37.641,29.449Zm-.659-1.39c.024-.069.034-.027.036.037-.052-.016-.038,0-.073-.037Zm.731,2.047c-.077.062-.161.176-.238.2-.119.04,0,.03-.053.091-.037.042-.074-.054-.074.037,0,.051-.245.206-.292.293-.035.043-.073-.056-.073.037,0,.047-.13.1-.171.146-.026.031-.1.146-.14.146s.008.049-.017.072a.645.645,0,0,0-.151.083c-.088.049-.088.125-.176.178a7.081,7.081,0,0,1-.662.544c-.009-.012.393-.379.444-.426.092-.083.11-.174.233-.214.083-.028.044-.165.164-.165s.3-.283.372-.365c.1-.114.073-.017.14-.073a.875.875,0,0,1,.256-.256c.059-.053-.068-.05.055-.091.092-.031.139-.112.2-.184C37.578,30.109,37.782,29.872,37.713,30.106Zm.037-.657h-.037c.018-.072.046-.129.11-.146A.611.611,0,0,1,37.751,29.449Zm1.1-3.657c-.032-.108.064-.151.056-.275,0-.058.189-.384.03-.384-.143,0-.258.06-.407.053-.093,0-.469-.081-.484.02-.051-.026-.176-.083-.184,0-.065.012-.037-.028-.073-.037-.13-.024-.055.064-.183,0-.024.083-.293,0-.293.054,0,.007-.262.043-.293.056a.318.318,0,0,1-.158.057,2.549,2.549,0,0,1-.4-.037c-.192-.028-.281.02-.5-.02a1.2,1.2,0,0,0-.072.461c0,.092-.083.179-.037.271-.013.013-.072.072-.072.087,0,.041.02.242-.019.242s.01.458-.056.426c.084.041,0,.035,0,.05a.309.309,0,0,1-.037.146c-.2.294.288.326.492.328.369,0,.74.016,1.107.007a9.407,9.407,0,0,1,.988-.094c.042,0,.267-.017.267-.071v-.267c0,.014.029-.1.036-.122s.037.021.037-.012v-.134c0-.171.069-.211.085-.366C38.685,26.152,38.743,25.815,38.848,25.792Zm-2.634,1.1v.037c-.022,0-.075,0-.09-.018.015.023.058-.059.053-.055.053.016.037,0,.073.037Zm1.463-1.426c.074.022.032-.006.074.037C37.676,25.477,37.719,25.5,37.676,25.463Zm8.3,2.23c-.076-.02-.132-.065-.219-.047-.065.014-.16.092-.219.083v-.037l-.292.037s0,.04-.037.037a1.13,1.13,0,0,0-.21-.06c-.124,0-.245.011-.366.008a1.177,1.177,0,0,1-.559-.094c-.035-.048.051-.376-.037-.351.063-.019.02-.068,0-.124.085-.009-.012-.1.073-.109-.013-.037-.024-.073-.037-.11a3.419,3.419,0,0,0,.11-.512c-.028-.007-.026-.211.038-.219-.055-.11.047-.123.073-.183a.474.474,0,0,0,.016-.2c-.006-.1.062-.152.053-.256s-.064-.255-.187-.229a1.442,1.442,0,0,1-.319.061c-.117,0-.75-.064-.77.037-.073.018-.084-.041-.146-.037v.037l-.366-.037c-.019.08-.311.037-.4.037-.251,0-.454.054-.734.073-.041.04-.058.219.017.219s0,.237-.009.275a2.929,2.929,0,0,0-.118.53c-.039.3-.183.561-.222.856-.071.514-.346.386-.743.4-.174.008-.183.115-.362.136a5.16,5.16,0,0,1-.667-.043c-.106,0-.155.4-.165.475,0,.019-.037-.028-.037.023a.613.613,0,0,1,0,.124c0,.008-.11.146-.112.162-.028.172-.051.221-.071.387a.147.147,0,0,0-.037.092V29.5c0,.031.02.135-.018.135.007,0-.072.112-.076.13-.015.074-.06.062-.033.143s.119.062.209.069c.205.016.308.06.5.067l.768.028c-.039.231-.13.433-.159.649-.026.174-.04.348-.056.522-.026.282-.186.564-.186.841,0,.057-.068.366-.128.366a.488.488,0,0,1-.055.108c-.009.1-.015.191-.023.286,0,.064-.009.126-.015.189h-.037a5.827,5.827,0,0,0-.052.913,1.727,1.727,0,0,0,.123.71c.053.106.1.081.186.13.1.107.246.367.392.367.162,0,.221.11.385.11.078,0,.056-.016.1.073.053.106.106.08.219.091s.158.054.24.054c.541,0,1.084-.007,1.625,0,.179,0,.333.073.516.073h.615a.182.182,0,0,0,.039,0c.079-.115.117-.118.257-.146.119-.024.166,0,.2-.117s.108-.174.053-.285c.022-.006.037-.076.037-.148v-.319c0-.044.072-.017.072-.074,0-.122.1-.072.037-.191.1.017.05-.857.146-.841a.546.546,0,0,0-.046-.243c-.069-.135-.275.058-.271.062-.11-.138-.278.034-.377.034-.062,0-.416.121-.439,0-.037.012-.074.026-.11.037.014-.073-.249-.054-.307-.06l-.2-.014a.4.4,0,0,0-.073-.146h-.037c-.017-.026.012-.08,0-.11a.244.244,0,0,1-.048-.121c-.006-.083-.015-.164-.022-.246,0-.035.032-.088.033-.072a1.191,1.191,0,0,1-.035-.246c.01-.153.021-.3.033-.455.008-.108.143-.2.179-.3a2.413,2.413,0,0,0,.046-.427c.013-.106.026-.214.033-.321a.123.123,0,0,0,.06-.071,1.035,1.035,0,0,0,.049-.222c-.082-.022,0-.02,0-.037.04-.117.083-.419.2-.453.068-.019.017-.1.094-.1h1.167a1.3,1.3,0,0,0,.4-.037.318.318,0,0,1,.147-.037,1.921,1.921,0,0,0,.328,0,1.159,1.159,0,0,0,.11-.5,3.763,3.763,0,0,1,.083-.462c.02-.146.127-.374.065-.5a2.525,2.525,0,0,0,.145-.548C45.949,27.828,45.977,27.76,45.977,27.693Zm-6.8,1.39c-.072-.031,0-.137,0,0Zm.11.694c.073.022.031,0,.073.038C39.286,29.792,39.328,29.819,39.286,29.777Zm.951,2.012c-.06.035-.085.1-.147.11.028-.062.069-.256.11-.256C40.267,31.643,40.237,31.732,40.237,31.789Zm.474-1.207c-.053-.016-.037,0-.072-.037C40.685,30.5,40.708,30.492,40.711,30.582Zm.111,3.219c-.073-.033,0-.138,0,0Zm0-3.365c-.041.1-.086-.1.037-.073C40.843,30.415,40.856,30.4,40.822,30.435Zm3.071-4.278h.037c-.041.081-.027.1,0,.183-.066.023-.117.055-.182.073a.458.458,0,0,0-.037-.037C43.74,26.267,43.827,26.237,43.893,26.158ZM41.7,29.485c.025-.069.034-.028.037.036-.051-.015-.039,0-.072-.036Zm-.035,3.292c.112.047-.055.114-.109.145C41.588,32.864,41.656,32.839,41.663,32.777Zm-.146-6.218c.156.031-.033.137,0,0Zm-.4,6.912c-.108-.014-.072.092-.146.108.024-.087.136-.24.219-.255A.63.63,0,0,1,41.114,33.472Zm.146-.22c.027-.054.02-.084.074-.073.028.013-.065.069-.074.073C41.273,33.227,41.264,33.25,41.26,33.252Zm.184-.183c-.025.069-.034.027-.037-.037.053.016.038,0,.073.037Zm-.074-3.181c-.058.058-.166.185-.256.292h-.073c-.012.038-.024.074-.036.11-.031.023-.035.035-.074.037a.518.518,0,0,1,.2-.271c.043-.013.043-.056.054-.1a.217.217,0,0,0,.16-.125c.035-.069.212-.26.278-.242C41.584,29.718,41.467,29.768,41.37,29.887Zm.365,3.8c-.033.008-.182.119-.182.054,0-.034.131-.115.182-.128Zm.622-.659c-.062-.01-.328.248-.328.293,0,.022-.1.069-.13.121-.055.081-.081.171-.2.134.039-.067.1-.218.184-.218.054,0,.071-.037.11-.073v-.073c.058,0,.083-.027.072-.073s.134-.107.171-.159l.121-.171h.074a.437.437,0,0,1,.219-.256C42.625,32.773,42.411,32.836,42.357,33.032Zm.987-3.292c-.076.013-.246.322-.332.4a.867.867,0,0,1-.216.151v.081c0,.053-.07.056-.113.078-.063.032-.063.1-.106.1s-.048,0-.036.037c0,.09-.036,0-.074.037s-.133.119-.183.183c-.052.019-.1-.037-.055-.037.024,0,.088-.064.128-.073v-.073c.047-.012.108-.031.128-.081.034-.094.071-.107.166-.138.044-.041,0-.094.1-.13.078-.029.064-.111.146-.149.116-.054.114-.175.218-.217C43.163,29.886,43.323,29.621,43.345,29.741Zm.512-.4c-.064-.016-.2.174-.255.244-.085.1-.157.071-.22.122.026-.106.21-.366.33-.366a.514.514,0,0,0,.145-.183c0-.1.076.015.11.037Zm4.133-1.646c0-.155,0-.327-.19-.278s-.182.2-.322.242c-.07-.21-.346-.264-.385-.037,0,.031,0,.11-.037.11s-.007.077-.017.11S47,27.81,47,27.9c0,.065.025.111-.035.119,0,.147.026.405.181.256.1-.1.1-.378.11-.512.077.046.1.123.167.187.047.047.044.1.11.073-.014,0,.177-.363.212-.317a1.273,1.273,0,0,1-.013.5c.051.033.177.144.256.074,0-.141.094-.464,0-.586C47.99,27.6,48.042,27.762,47.99,27.693Zm-1.354.146c-.012-.049-.024-.1-.037-.146l.275-.027c.154-.015.064,0,.093-.083a.087.087,0,0,0-.053-.146h-.242c-.006,0,.017-.037-.017-.037s-.013.037-.019.037a.687.687,0,0,0-.365.072.188.188,0,0,0-.073.219c.035.062.142.031.22,0-.008.067,0,.415-.074.4,0,.121.058.221.18.155s.037-.218.112-.228C46.645,28,46.523,27.86,46.636,27.839Zm-22.6-.768c.194,0,.319.04.475.037.008,0-.016-.037.019-.037s-.007.037.035.037h.187c.04,0,0,.036.027.036.207,0,.338.036.51.036.113,0,.081.037.182.037.083,0-.047.056.1.043.11-.01.115-.06.224-.008v-.036l.219.036c.015-.1.18,0,.183,0,.069,0,.153-.074.242-.1.137-.031.369-.024.387-.171a1.592,1.592,0,0,1,.068-.246c.035-.144-.066-.3-.037-.439.127-.085.12-.138.146-.292,0,.006.063-.073.055-.073.026,0,.04-.221.053-.256a1.317,1.317,0,0,0,.129-.255c.088,0-.12-.05-.143-.051-.094,0-.242.017-.276-.059-.048-.006-.3.115-.331,0l-.548.037c-.019-.1-.438.024-.438-.092,0-.077-.507.056-.512-.054-.049-.008-.179.037-.246.037s-.217-.037-.229.037a.953.953,0,0,0-.146-.037,5.327,5.327,0,0,1-.128.877c-.024,0-.058.253.019.256a1.7,1.7,0,0,1-.154.428c-.029.041-.092.031-.1.047C23.984,26.938,23.918,27.049,24.037,27.072Zm2.817-1.535c.1.032.13.028.071.131-.023.041-.022.16-.054.16S26.854,25.583,26.854,25.536Zm-.44,1.023c.094-.022.163-.087.257-.11C26.672,26.448,26.43,26.716,26.414,26.559ZM10.763,33.506c.069,0,.039-.24.05-.317a2.688,2.688,0,0,0,0-.4c0-.107.069-.226.06-.31h-.037c0-.038.037-.108.042-.149.022-.213-.035-.014-.042-.071-.007-.08,0-.165,0-.246s-.036-.029-.036-.126a1.567,1.567,0,0,0-.11-.176c-.025-.07-.044-.292-.183-.292-.071,0-.116-.1-.158-.146-.077-.093-.117-.081-.231-.1a.251.251,0,0,1-.159-.085c-.027-.01-.219.065-.219-.019a2.375,2.375,0,0,0-.622-.274c.01,0-.219-.13-.219-.092,0-.032-.292-.04-.292-.072a5.953,5.953,0,0,1-.823-.119.577.577,0,0,1-.165-.046s-.187-.11-.183-.11c-.089-.015-.348.051-.365-.037l-.11.037c-.014-.078-.146,0-.146-.054a3.721,3.721,0,0,0-.658-.041c-.089,0-.548.038-.548-.106,0-.009-.183-.106-.183-.187,0-.183.238-.331.4-.416.034-.017.03-.05.072-.058.089-.018.044-.05.1-.078s.245-.042.266-.083a3.684,3.684,0,0,1,.619-.081,5.775,5.775,0,0,1,.6,0c.128,0,.212-.031.272.082.029.056.092.08.117.108.069.077-.087.028.073.11a1.287,1.287,0,0,1,.14.282c.034.1,0,.149.112.162A.681.681,0,0,0,8.5,30c.014,0-.017-.036.01-.036h.165c.071,0,.217-.036.228.036.33-.033.649-.036.98-.036.107,0,.571,0,.593.072l.146-.037a.063.063,0,0,0,.073.037c.009-.085.16-.019.22,0v-.037l.328.037c.012-.087.117,0,.183-.037s.083-.082.11-.109c.017-.2-.219-.238-.219-.374,0-.053-.037-.009-.037-.093a.2.2,0,0,0-.037-.118v-.081c0-.071-.028,0-.037-.028-.03-.121-.072-.144-.091-.256-.012-.074-.121-.219-.2-.219-.04,0-.184-.131-.184-.183,0-.123-.165-.1-.219-.146a.6.6,0,0,0-.365-.255c-.047.011-.071-.014-.074-.073l-.219-.073a.235.235,0,0,0-.123-.037c-.014,0-.061-.026-.1-.037-.078-.024.22,0-.094-.051l-.285-.043c-.139-.022-.135-.088-.287-.088-.083,0-.176-.037-.305-.037-.033,0,.007-.037-.052-.037H8.358c-.1,0-.183-.037-.326-.037a4.815,4.815,0,0,1-.492-.074,3.046,3.046,0,0,0-.356-.022,1.069,1.069,0,0,0-.176.013c-.076.013-.026.043-.045.047-.109.026-.2-.038-.256-.036.015,0-.062.036-.1.036-.06,0-.153.032-.155-.036-.022,0-.135.1-.146,0-.087.029-.094.044-.183,0a3.111,3.111,0,0,1-.8.109c-.048,0-.111.047-.2.059s-.125.076-.137.015l-.329.037c-.041.083-.015.073-.074.073H4.266a.852.852,0,0,1-.174.037c-.041,0,0,.035-.019.037a1.29,1.29,0,0,1-.164,0c-.031,0-.032.027-.047.054-.024.047-.085-.007-.119.019l-.2.219-.132.146H3.342a1.051,1.051,0,0,1-.255.238.946.946,0,0,0-.183.237.66.66,0,0,0-.292.439c0,.1-.085.133-.11.183-.039.155-.092.244-.128.42,0,.019-.075.2-.073.2-.033,0-.019.181-.031.227-.035.135-.187.837-.024.87-.012.037-.024.072-.037.11.078-.015.065.169.073.219a.212.212,0,0,1,.15.129c.074.14.192.131.271.237s.106.041.165.128.069.055.155.055.38.13.357.219c.153-.006.3-.05.457-.058a1.3,1.3,0,0,1,.267.058c.1,0,.229.074.329.074.132,0,.118.073.236.073.015,0,.065-.072.065-.019s.149.019.183.019h.145c.065,0,.012.028.038.037a1.38,1.38,0,0,0,.283.072.5.5,0,0,1,.138.037,1.153,1.153,0,0,1,.187.037c.249,0,.565.074.859.1a1.8,1.8,0,0,1,.612.067c.163.072.165.129.352.18.11.03.2.006.2.135a.418.418,0,0,1-.037.212.637.637,0,0,1-.419.251c-.006,0-.094.069-.094.06a.447.447,0,0,0-.11.054,1.825,1.825,0,0,1-.246,0c-.071,0-.028.038-.119.038-.217,0-.344-.038-.53-.046-.2-.01-.526-.011-.6-.027a.185.185,0,0,1-.11-.073.528.528,0,0,1-.237-.146c-.038-.051-.128-.092-.128-.146,0-.071-.073-.037-.073-.1,0-.134-.073-.187-.073-.355s-.3-.171-.425-.182c-.1-.008-.407.007-.416.09l-.146-.037c.015.078-.169.065-.219.073V32.7c-.1-.017-.107.038-.219,0,0,.1-.367,0-.4,0-.014.049-.024.051-.036,0-.057,0-.135.1-.146,0a1.648,1.648,0,0,1-.366,0c-.073-.014-.1.04-.183.019s-.09.037-.183.017c-.007-.054.031-.05-.073,0-.008-.038-.163-.08-.257-.037s-.475-.022-.475.056c0,.019-.129.031-.146.054,0,.043-.059.256.019.256.024-.007.03.007.018.037,0,.121.112,0,.037.146.118.06.118.267.146.366.006.023.036,0,.036.081a.478.478,0,0,0,.073.174.512.512,0,0,1,.073.185.1.1,0,0,1,.092.128c.056.28.029.017.055.091a.945.945,0,0,0,.366.476c.056.112.082.033.146.129s.248.1.366.128c.146.033.293.064.439.1.077.016.211.084.248.084a1.974,1.974,0,0,1,.41.129c0,.047.4.179.4.183,0,.081.719.092.839.092.145,0,.937-.076.952.072a3.075,3.075,0,0,1,.4-.023c.133,0,.254.061.332.023V35.7a.064.064,0,0,0,.073-.037c.049.014.1.024.146.037.008-.04-.007-.033.037-.037a.064.064,0,0,0,.073.037c.047-.008-.011-.043.037-.037V35.7c.219-.037.6-.094.658-.108s.067-.072.074-.074a2.334,2.334,0,0,0,.584-.182c.022-.007-.028-.037.019-.037a.473.473,0,0,0,.144,0,.526.526,0,0,0,.166-.092c0-.046.144-.008.183-.019a.114.114,0,0,1,.055-.054c.089-.03.049.041.128.019.01-.057.329-.081.329-.129s.147-.054.2-.054c.019,0,.114-.092.169-.11a1.813,1.813,0,0,1,.182-.144.487.487,0,0,0,.193-.187c.032-.065.1-.065.1-.108,0-.078.183-.137.183-.264,0-.078.11-.054.11-.138-.01-.046.014-.069.074-.072.012-.061.024-.124.036-.183A.274.274,0,0,0,10.763,33.506Zm.037-3.8a.6.6,0,0,0,.146-.073c-.035.1-.042.111-.146.145Zm-1.609-.184c-.008.044.022.078-.037.073.019-.071.045-.128.11-.146A.145.145,0,0,1,9.191,29.521Zm.512-.475a.833.833,0,0,1,.278-.3c.09-.051.168-.29.261-.29.11,0,.09.01.028.085-.028.04-.055.079-.081.12-.071.1-.058.007-.122.05-.065.1-.128.092-.169.176a.938.938,0,0,1-.27.226.336.336,0,0,1,.074-.073Zm-.11.146a.654.654,0,0,0-.073.037v-.073C9.574,29.172,9.558,29.158,9.593,29.192ZM8.2,27.949l.146-.073C8.361,27.96,8.22,28.034,8.2,27.949Zm0,1.1c.07.022.108.007.128-.055s.165-.074.165-.146c0,.013.248-.2.256-.2.08,0,.06-.11.128-.11a1.949,1.949,0,0,1,.128-.164c.056-.084.1-.048.183-.14.05-.058.267-.3.344-.113.047.116-.233.278-.312.354-.033.033-.084.119-.1.138H9.045c-.032.047-.047.108-.109.108-.161,0-.259.239-.363.273-.229.076-.351.328-.588.387C7.939,29.226,8.167,29.2,8.2,29.047Zm-.256-.841a.222.222,0,0,1,.147-.109c-.05.066-.086.169-.184.146.027-.035,0-.011.037-.037C7.983,28.15,7.906,28.236,7.947,28.205Zm-.292.219h.036c.03.015-.065.069-.073.073C7.631,28.474,7.643,28.45,7.655,28.425Zm-.255.292c-.073-.022-.031.006-.073-.036C7.4,28.7,7.358,28.676,7.4,28.717ZM2.9,30.326c-.009.079-.1.04-.128.128s-.131.085-.176.171a1.03,1.03,0,0,1-.245.249c0-.166.016-.212.139-.3a.345.345,0,0,0,.044-.069c.085-.021.132-.016.183-.091s.106-.05.168-.125.087-.137.162-.15C3.022,30.235,2.969,30.267,2.9,30.326Zm1.061-.4c-.054.026-.074-.006-.109-.037C3.908,29.871,3.957,29.873,3.962,29.924Zm.292-.219c-.044.038-.136.123-.183.11a.469.469,0,0,1,.255-.256l-.073.146C4.171,29.775,4.279,29.656,4.254,29.705Zm1.1-.842a1.019,1.019,0,0,1-.3.2c-.141.056,0,.043-.067.094-.067.017-.116.057-.183.073V29.3a.573.573,0,0,0-.174.085c-.087.057-.159.183-.264.171a.771.771,0,0,1,.14-.173c.045-.035.058-.083.117-.083s.068-.072.11-.11c.017-.022.136-.146.183-.146a.245.245,0,0,0,.159-.1.641.641,0,0,0,.1-.124h.073a.26.26,0,0,1,.1-.135.292.292,0,0,0,.08-.083H5.5c.062-.053-.056-.033.068-.1.069-.039.106-.1.188-.119.047-.04-.041-.049.044-.09a1.1,1.1,0,0,0,.215-.151c.058-.047.217-.264.271-.275s.336-.141.346-.033a.947.947,0,0,0-.256.219c-.072.024-.1.015-.128.091s-.092.047-.092.073c0,0-.342.289-.373.3s-.037-.009-.049.025c-.032.1-.11.068-.187.133-.028.023-.086.056-.086.1a.426.426,0,0,0-.108.092C5.266,28.942,5.364,28.839,5.352,28.863ZM2.207,33.252c-.1-.019-.274.3-.365.382-.02.019-.084.094-.092.094-.112,0,.076-.174.091-.183.081-.09.134-.208.219-.293h.073a.366.366,0,0,1,.11-.178c.067-.061.1-.119.183-.115C2.362,33.067,2.24,33.122,2.207,33.252Zm.548.914H2.718c.01-.14.112-.2.146-.328.1-.027.094-.13.184-.11C3.006,33.91,2.844,34.01,2.755,34.166Zm.366-.548c-.026.035,0,.01-.037.035V33.58c.053.016.038,0,.073.038Zm1.572,1.756c-.026.034,0,.008-.036.035-.076-.108.121-.216.183-.33.077.1-.062.251-.147.294C4.662,35.414,4.786,35.324,4.693,35.374Zm1.243,0c-.072-.033,0-.138,0,0Zm.146-.22c-.02.068-.028.126-.11.11.035-.067.058-.174.146-.148-.027.035,0,.011-.037.038C6.061,35.226,6.125,35.122,6.083,35.153Zm.073-.074H6.12a.392.392,0,0,1,.219-.218Zm.367-.364c-.044.014-.069.026-.11.037a.278.278,0,0,1,.11-.11Zm.841-.914c-.024.016-.283.188-.262.209a.114.114,0,0,0,.042.01c-.007.068-.058.057-.109.073v.073H6.961c-.1.124-.257.393-.4.439a1.089,1.089,0,0,1,.11-.146,1.186,1.186,0,0,0,.151-.178c.063-.11.076-.042.13-.148.026-.051.022-.114.085-.114s.092-.112.14-.159S7.35,33.676,7.363,33.8Zm-.292-1.939c.072.022.031-.006.072.037C7.071,31.877,7.112,31.9,7.071,31.862Zm.584-.512c-.1-.027-.181.192-.267.253-.024.017-.1.125-.1.049,0-.187.4-.271.4-.492,0-.022.189-.178.219-.247.032-.044.074.056.074-.037,0-.057.026-.036.081-.036.1,0-.112.143-.134.163A1.429,1.429,0,0,0,7.655,31.35Zm.621,1.5c-.1-.027-.264.3-.366.33a.428.428,0,0,1,.1-.264c.055-.068.086-.031.121-.137C8.2,32.784,8.258,32.785,8.276,32.849Zm.586-.8H8.825c.018-.071.046-.128.11-.146A.625.625,0,0,1,8.862,32.044Zm.695-.658c-.049-.012-.217.16-.285.221-.085.077-.2.269-.3.292.051-.187.183-.221.268-.39a.3.3,0,0,1,.155-.18.17.17,0,0,0,.088-.126.573.573,0,0,1,.146.073Zm.329,3.145c-.073-.031,0-.137,0,0Zm.036-.11c.027-.054.02-.084.073-.073.029.013-.064.069-.073.073C9.935,34.4,9.926,34.42,9.922,34.422Zm.7-2.3c-.1-.073-.169-.163,0-.219Zm14.517,2.158c.067-.011.073-.26.073-.346,0-.187.11-.432.11-.613a1.148,1.148,0,0,1,.037-.138c.008-.023.036.028.036-.019a1.433,1.433,0,0,1,0-.164.952.952,0,0,0,.055-.146,1.03,1.03,0,0,1,.055-.129v-.145c0-.047.028,0,.037-.019.026-.074.008-.1.037-.182.006-.019.037.022.037-.014v-.193a.56.56,0,0,1,.037-.159.837.837,0,0,0,.134-.377c.016-.135.135-.29.085-.391.084-.008.181-.552.146-.621.009-.008.055-.074.056-.074a.613.613,0,0,1,.054-.109v-.081c0-.072.025,0,.037-.028s.037-.131.037-.126c0-.17.037-.208.037-.366a.568.568,0,0,0,.036-.143c0-.029.037-.049.037-.124,0-.049.028-.3.054-.3.061,0,.058-.293.111-.293,0,0,.09-.285.09-.292,0-.043.041-.054.048-.13s.017-.158.025-.238c-.075-.015.037-.1.037-.174,0-.126.024-.081.054-.173.047-.144-.174-.189-.283-.18a1.668,1.668,0,0,0-.416.106.293.293,0,0,1-.131.019c-.06,0-.009.034-.029.037-.155.022-.321-.027-.475,0-.022,0,.044.035-.065.049a.961.961,0,0,1-.228,0c-.111-.01-.229-.049-.34-.049h-.276a.384.384,0,0,1-.08,0c-.066-.133-.044-.028-.146-.073v-.018c.006-.04-.024-.053-.087-.037-.047,0-.128.015-.169-.017a.357.357,0,0,0-.256.146c-.018.028-.037-.035-.037.023a.46.46,0,0,1,0,.124c0,.014-.073.072-.073.1,0,.1-.042.142-.051.271-.008.1-.015.189-.022.285-.006.024-.028-.044-.055.092a.663.663,0,0,1-.074.165s-.091.311-.091.321a.344.344,0,0,1-.037.155c-.01.026-.036-.035-.036.023a.668.668,0,0,1,0,.124c-.011.058-.017-.18-.049.109,0,.033,0,.219-.043.219-.017,0-.055.1-.055.137,0,.055-.128.667-.128.667-.049,0-.042.293-.073.293.007,0-.1.313-.1.341-.009.063-.047.275-.1.28a.063.063,0,0,0,.037.073c-.013.049-.026.1-.037.146.037.022.058.018,0,.037.043.035,0,.314,0,.4,0,.106-.073.191-.073.29,0,.134-.037.228-.037.4a.818.818,0,0,1-.11.232c.031.094.065.1-.037.146-.009.108-.018.218-.028.33a.937.937,0,0,1-.046.219h-.017c-.044-.007-.055.026-.031.1,0,.033,0,.2-.042.2s-.018.165-.018.2c0,.122-.073.167-.073.283,0,.05-.06.221-.073.321,0,.011-.076.135-.11.145.012.037.025.074.037.111-.132.031.175.128.219.145.012-.119.217-.02.292-.037l.074-.072c.037.011.073.023.11.037.008-.073.151-.037.219-.037a2.942,2.942,0,0,1,.329-.037c.01.114.231,0,.257,0,.006.077.291.037.368.037a.178.178,0,0,1,.128.033c.057.027.056-.015.1-.03.1-.034.045.049.137.034v-.037c.109.011.219.023.328.037-.014-.077.154-.051.2-.056.067-.007.134-.012.2-.017.007-.034.015-.146.055-.146s.017-.229.017-.266C25.1,34.65,25.135,34.475,25.135,34.275Zm1.1-5.851c.21-.059.051.168-.074.146A.553.553,0,0,0,26.232,28.425Zm-3.474,6.691c-.054-.015-.038,0-.073-.037a.457.457,0,0,0,.073-.035Zm.11-2.339h-.037c.023-.2.135-.151.219-.221C22.99,32.631,22.928,32.7,22.868,32.777Zm2.522-1.939h-.073c.056-.169.276-.228.4-.371a.659.659,0,0,0,.076-.1h.072s.022-.061.037-.073C25.832,30.55,25.52,30.62,25.39,30.839Zm.146-2.414c.077.021.185-.141.247-.2s.189-.067.045.03-.219.285-.4.316C25.463,28.523,25.5,28.474,25.537,28.425Zm-.183.146h.036c-.048.065-.076.125-.146.146Zm-.256.256c.027-.035,0-.01.037-.036.024.085-.115.135-.183.146a.3.3,0,0,1,.146-.11C25.129,28.786,25.029,28.857,25.1,28.826Zm-1.243,5.3c-.053-.016-.038,0-.072-.037.021-.014.046-.016.072-.035Zm.292-.292c-.124-.024-.123.2-.255.182.054-.071.047-.121.146-.146.011-.037.01-.081.054-.1.1-.03.015-.065.115-.106a.181.181,0,0,0,.106-.1c.033-.081.118-.106.2-.144s.071-.128.181-.135C24.561,33.517,24.281,33.607,24.147,33.837Zm.768-.11a2.693,2.693,0,0,0-.219.208c-.13.151-.065.017-.146.084-.036.056-.048.1-.109.11.027-.083.277-.364.365-.364.128,0,.06-.176.183-.146C24.969,33.687,24.963,33.683,24.915,33.728Zm-.109-4.06c-.051.1-.117.1-.193.173a.229.229,0,0,0-.063.12.448.448,0,0,0-.154.051.745.745,0,0,0-.247.218c-.062.086-.087.027-.13.117a.613.613,0,0,1-.055.089h-.073c-.037.06-.073.122-.11.183h-.074v.073c-.083.023-.087.026-.11.11a.451.451,0,0,1-.06-.023,1.959,1.959,0,0,1,.317-.343c.09,0-.017-.073.074-.073.112,0,.136-.219.237-.219a.377.377,0,0,1,.094-.1c.061-.032.1-.118.144-.118s.082-.051.11-.073c.051-.1.178-.151.257-.256a.585.585,0,0,1,.074-.036h.072c.033-.049.048-.11.11-.11s.026-.031.074-.068a.119.119,0,0,0,.036-.078.47.47,0,0,0,.192-.093c.083-.066.116-.158.208-.207.067-.035.205-.176.258-.176.037.012.049,0,.037-.036,0-.069.077-.053.13-.085.069-.04.092-.121.162-.135l-.292.33h-.073v.073a.553.553,0,0,0-.264.135.213.213,0,0,0-.03.084H25.39v.073a.354.354,0,0,0-.118.058c-.053.038-.174.068-.174.125s-.235.165-.292.219C24.793,29.692,24.88,29.6,24.806,29.668Zm.292,1.316c.076-.024.124-.019.11-.109.053.016.037,0,.072.037C25.208,30.954,25.093,31.157,25.1,30.984Z" transform="translate(-1.233 -25.133)"/></svg>