<svg xmlns="http://www.w3.org/2000/svg" width="30.28" height="35.14" viewBox="0 0 30.28 35.14"><defs><style>.a{fill:#b8eddb;}.b{fill:none;fill-rule:evenodd;}.b,.c{stroke:#27827f;stroke-linecap:round;stroke-linejoin:round;}.c{fill:#fff;}</style></defs><g transform="translate(-0.86 -0.355)"><g transform="translate(-873 -464)"><g transform="translate(621 429)"><g transform="translate(1 35)"><g transform="translate(252)"><path class="a" d="M29.64,9.93V4.89A1.1,1.1,0,0,0,28.5,3.8H1.5A1.1,1.1,0,0,0,.405,4.89V9.93Z"/><path class="b" d="M.36,9.9H29.64"/><rect class="c" width="2.925" height="5.85" rx="0.95" transform="translate(6.465 0.855)"/><rect class="c" width="2.925" height="5.85" rx="0.95" transform="translate(20.895 0.855)"/><path class="b" d="M3.525,14.955h23.19"/><path class="b" d="M3.525,20.85h23.19"/><path class="b" d="M3.525,26.745h23.19"/><path class="b" d="M21.03,12.525V29.43"/><path class="b" d="M15.12,12.525V29.43"/><path class="b" d="M9.225,12.525V29.43"/><path class="b" d="M23.835,3.7H28.5a1.1,1.1,0,0,1,1.095,1.1V31.065A1.1,1.1,0,0,1,28.5,32.16H1.5A1.1,1.1,0,0,1,.405,31.065V4.8A1.1,1.1,0,0,1,1.5,3.7H6.465"/><path class="b" d="M9.39,3.7H20.9"/><path class="b" d="M27.405,32.25v1.815a.93.93,0,0,1-.93.93H3.525a.93.93,0,0,1-.93-.93V32.25"/></g></g></g></g></g></svg>