<svg xmlns="http://www.w3.org/2000/svg" width="39.15" height="32.348" viewBox="0 0 39.15 32.348"><defs><style>.a{fill:#d4e79c;stroke-linejoin:round;}.a,.b{stroke:#5f731f;}.b{fill:none;stroke-linecap:round;fill-rule:evenodd;}</style></defs><g transform="translate(-0.137 -0.998)"><g transform="translate(-869 -515)"><g transform="translate(621 429)"><g transform="translate(0 87)"><g transform="translate(248)"><path class="a" d="M18.175,30.364l.263,1.031a.607.607,0,0,0,.6.45h1.425a.607.607,0,0,0,.6-.45l.263-1.031Z"/><path class="a" d="M21.612,30.364H17.788a1.636,1.636,0,0,1-1.6-1.185l-1.7-6.72H24.913l-1.7,6.72A1.636,1.636,0,0,1,21.612,30.364Z"/><path class="b" d="M16.788,25.09H15.225"/><path class="b" d="M18.538,25.09h5.637"/><path class="b" d="M19.65,27.722h.587"/><path class="b" d="M19.712.5a9.886,9.886,0,0,1,6.8,2.669,8.881,8.881,0,0,1,2.815,6.445c0,5.167-4.413,7.111-4.413,12.836"/><path class="b" d="M19.712.5A9.373,9.373,0,0,0,10.1,9.612c0,5.167,4.412,7.111,4.412,12.836"/><path class="b" d="M15.887,27.722h2.287"/><path class="b" d="M21.712,27.722h1.7"/><path class="b" d="M19.7,12.373v8.059"/><path class="b" d="M17.138,11.947h5.225"/><path class="b" d="M1.237,11.947h-.6"/><path class="b" d="M5.4,11.947H2.912"/><path class="b" d="M2.662,5.95,1.188,5.061"/><path class="b" d="M5.688,7.7,4.225,6.839"/><path class="b" d="M4.963,16.154l.725-.427"/><path class="b" d="M1.188,18.358l2.237-1.3"/><path class="b" d="M38.188,11.484h.6"/><path class="b" d="M34.025,11.484H36.5"/><path class="b" d="M36.763,17.482l1.462.877"/><path class="b" d="M33.725,15.727l1.475.853"/><path class="b" d="M34.463,7.277l-.738.427"/><path class="b" d="M38.225,5.061,35.987,6.376"/></g></g></g></g></g></svg>