<svg xmlns="http://www.w3.org/2000/svg" width="39.563" height="30.45" viewBox="0 0 39.563 30.45"><defs><style>.a{fill:none;fill-rule:evenodd;}.a,.b{stroke:#7c68b2;stroke-linecap:round;stroke-linejoin:round;}.b{fill:#dcd3f5;}</style></defs><g transform="translate(-0.204 -0.268)"><g transform="translate(-1039 -360)"><g transform="translate(978 305)"><g transform="translate(61 55)"><path class="a" d="M26.933.768A9.478,9.478,0,0,0,28.9,17.582a9.261,9.261,0,0,0,9.632-2.15,9.382,9.382,0,0,0,.733-.755A11.255,11.255,0,0,1,17.032,12.12,11.348,11.348,0,0,1,26.933.768Z"/><path class="a" d="M10.147,8.8l2.987.27a.386.386,0,0,0,.359-.185.394.394,0,0,0,0-.408l-1.6-2.561L13.067,3.14a.394.394,0,0,0-.065-.4.384.384,0,0,0-.375-.13L9.72,3.356,7.48,1.348a.383.383,0,0,0-.393-.054.391.391,0,0,0-.234.324L6.667,4.65,4.067,6.2a.393.393,0,0,0,0,.687L6.853,8.006l.667,2.952a.389.389,0,0,0,.285.285.384.384,0,0,0,.382-.123Z"/><path class="b" d="M22.667,30.218A5.761,5.761,0,0,0,25,29.747a6.086,6.086,0,0,0,0-11.16,5.889,5.889,0,0,0-4.8.081A6.971,6.971,0,0,0,6.693,21.08v1.011H4.76a3.843,3.843,0,0,0-1.547.31A4.022,4.022,0,0,0,1.08,24.557a4.084,4.084,0,0,0,0,3.14,4.022,4.022,0,0,0,2.133,2.156,3.843,3.843,0,0,0,1.547.31Z"/><path class="a" d="M1.733,14.678l-.947-.8a.163.163,0,0,1,0-.283L2,13.316l.52-1.186a.159.159,0,0,1,.28,0l.64,1.078,1.24.081a.16.16,0,0,1,.136.1.163.163,0,0,1-.03.168l-.813.943.307,1.213a.172.172,0,0,1,.011.17A.167.167,0,0,1,4,15.9l-1.147-.5L1.8,16.08a.158.158,0,0,1-.164,0,.162.162,0,0,1-.076-.146Z"/></g></g></g></g></svg>