<svg xmlns="http://www.w3.org/2000/svg" width="69.672" height="44.254" viewBox="0 0 69.672 44.254"><defs><style>.a{fill:#fff;}.b{fill:#f7b600;}.c{fill:#1a1f71;}</style></defs><rect class="a" width="69.672" height="44.254"/><rect class="b" width="67.349" height="6.032" transform="translate(1.161 37.061)"/><rect class="c" width="67.349" height="6.032" transform="translate(1.161 1.161)"/><path class="c" d="M44.792,42.29,37.825,58.9H33.277L29.858,45.645a1.748,1.748,0,0,0-1.032-1.451A18.51,18.51,0,0,0,24.6,42.774l.1-.484h7.322a1.966,1.966,0,0,1,1.968,1.677l1.806,9.644,4.451-11.289h4.548ZM62.565,53.483c.032-4.387-6.064-4.613-6-6.58,0-.581.581-1.226,1.806-1.387a8.384,8.384,0,0,1,4.225.742l.742-3.516A11.238,11.238,0,0,0,59.307,42c-4.258,0-7.225,2.258-7.257,5.483-.032,2.387,2.129,3.709,3.742,4.516,1.677.806,2.226,1.322,2.226,2.064,0,1.129-1.322,1.613-2.58,1.613a8.808,8.808,0,0,1-4.419-1.064l-.774,3.645a12.861,12.861,0,0,0,4.774.871c4.58.032,7.548-2.193,7.548-5.645M73.789,58.9h3.967L74.273,42.29H70.6a1.971,1.971,0,0,0-1.839,1.226L62.307,58.9h4.516l.9-2.484h5.516Zm-4.806-5.87,2.258-6.225,1.29,6.225ZM50.92,42.29,47.372,58.9h-4.29L46.63,42.29Z" transform="translate(-16.665 -28.453)"/></svg>